<svg width="40" height="40" viewBox="0 0 40 40" fill="none" xmlns="http://www.w3.org/2000/svg">
<path d="M37.8125 19.0625H33.5L36.125 16.4375C36.5 16.0625 36.5 15.5 36.125 15.125C35.75 14.75 35.1875 14.75 34.8125 15.125L30.875 19.0625H27.9375L29.5 17.5C29.875 17.125 29.875 16.5625 29.5 16.1875C29.125 15.8125 28.5625 15.8125 28.1875 16.1875L25.3125 19.0625H22.3125L27.9375 13.4375H33.5C34 13.4375 34.4375 13 34.4375 12.5C34.4375 12 34 11.5625 33.5 11.5625H29.8125L33.25 8.125C33.625 7.75 33.625 7.1875 33.25 6.8125C32.875 6.4375 32.3125 6.4375 31.9375 6.8125L28.5 10.25V6.5625C28.4375 6 28.0625 5.625 27.5 5.625C26.9375 5.625 26.5625 6.0625 26.5625 6.5625V12.125L20.9375 17.75V14.75L23.8125 11.875C24.1875 11.5 24.1875 10.9375 23.8125 10.5625C23.4375 10.1875 22.875 10.1875 22.5 10.5625L20.9375 12.125V9.1875L24.875 5.25C25.25 4.875 25.25 4.3125 24.875 3.9375C24.5 3.5625 23.9375 3.5625 23.5625 3.9375L20.9375 6.5625V2.1875C20.9375 1.6875 20.5 1.25 20 1.25C19.5 1.25 19.0625 1.6875 19.0625 2.1875V6.5L16.4375 3.875C16.0625 3.5 15.5 3.5 15.125 3.875C14.75 4.25 14.75 4.8125 15.125 5.1875L19.0625 9.125V12.0625L17.5 10.5C17.125 10.125 16.5625 10.125 16.1875 10.5C15.8125 10.875 15.8125 11.4375 16.1875 11.8125L19.0625 14.6875V17.6875L13.4375 12.0625V6.5C13.4375 6 13 5.625 12.5 5.625C12 5.625 11.5625 6.0625 11.5625 6.5625V10.25L8.125 6.8125C7.75 6.4375 7.1875 6.4375 6.8125 6.8125C6.4375 7.1875 6.4375 7.75 6.8125 8.125L10.25 11.5625H6.5625C6 11.5625 5.625 11.9375 5.625 12.5C5.625 13.0625 6.0625 13.4375 6.5625 13.4375H12.125L17.75 19.0625H14.75L11.875 16.1875C11.5 15.8125 10.9375 15.8125 10.5625 16.1875C10.1875 16.5625 10.1875 17.125 10.5625 17.5L12.125 19.0625H9.1875L5.25 15.125C4.875 14.75 4.3125 14.75 3.9375 15.125C3.5625 15.5 3.5625 16.0625 3.9375 16.4375L6.5625 19.0625H2.1875C1.6875 19.0625 1.25 19.5 1.25 20C1.25 20.5 1.6875 20.9375 2.1875 20.9375H6.5L3.875 23.5625C3.5 23.9375 3.5 24.5 3.875 24.875C4.0625 25.0625 4.3125 25.125 4.5625 25.125C4.8125 25.125 5.0625 25.0625 5.25 24.875L9.1875 20.9375H12.125L10.5 22.5C10.125 22.875 10.125 23.4375 10.5 23.8125C10.6875 24 10.9375 24.0625 11.1875 24.0625C11.4375 24.0625 11.6875 24 11.875 23.8125L14.75 20.9375H17.75L12.125 26.5625H6.5625C6 26.5625 5.625 27 5.625 27.5C5.625 28 6.0625 28.4375 6.5625 28.4375H10.25L6.8125 31.875C6.4375 32.25 6.4375 32.8125 6.8125 33.1875C7 33.375 7.25 33.4375 7.5 33.4375C7.75 33.4375 8 33.375 8.1875 33.1875L11.625 29.75V33.4375C11.625 33.9375 12.0625 34.375 12.5625 34.375C13.0625 34.375 13.5 33.9375 13.5 33.4375V27.875L19.125 22.25V25.25L16.1875 28.125C15.8125 28.5 15.8125 29.0625 16.1875 29.4375C16.375 29.625 16.625 29.6875 16.875 29.6875C17.125 29.6875 17.375 29.625 17.5625 29.4375L19.125 27.875V30.8125L15.1875 34.75C14.8125 35.125 14.8125 35.6875 15.1875 36.0625C15.375 36.25 15.625 36.3125 15.875 36.3125C16.125 36.3125 16.375 36.25 16.5625 36.0625L19.1875 33.4375V37.75C19.1875 38.25 19.625 38.6875 20.125 38.6875C20.625 38.6875 21.0625 38.25 21.0625 37.75V33.4375L23.6875 36.0625C23.875 36.25 24.125 36.3125 24.375 36.3125C24.625 36.3125 24.875 36.25 25.0625 36.0625C25.4375 35.6875 25.4375 35.125 25.0625 34.75L21.125 30.8125V27.875L22.6875 29.4375C22.875 29.625 23.125 29.6875 23.375 29.6875C23.625 29.6875 23.875 29.625 24.0625 29.4375C24.4375 29.0625 24.4375 28.5 24.0625 28.125L21.1875 25.25V22.25L26.8125 27.875V33.4375C26.8125 33.9375 27.25 34.375 27.75 34.375C28.25 34.375 28.6875 33.9375 28.6875 33.4375V29.75L32.125 33.1875C32.3125 33.375 32.5625 33.4375 32.8125 33.4375C33.0625 33.4375 33.3125 33.375 33.5 33.1875C33.875 32.8125 33.875 32.25 33.5 31.875L30.0625 28.4375H33.75C34.25 28.4375 34.6875 28 34.6875 27.5C34.6875 27 34.25 26.5625 33.75 26.5625H28.1875L22.5625 20.9375H25.5625L28.4375 23.8125C28.625 24 28.875 24.0625 29.125 24.0625C29.375 24.0625 29.625 24 29.8125 23.8125C30.1875 23.4375 30.1875 22.875 29.8125 22.5L28.25 20.9375H31.1875L35.125 24.875C35.3125 25.0625 35.5625 25.125 35.8125 25.125C36.0625 25.125 36.3125 25.0625 36.5 24.875C36.875 24.5 36.875 23.9375 36.5 23.5625L33.875 20.9375H38.1875C38.6875 20.9375 39.125 20.5 39.125 20C39.125 19.5 38.3125 19.0625 37.8125 19.0625" fill="#75D6FF"/>
</svg>
