<svg width="20" height="20" viewBox="0 0 20 20" fill="none" xmlns="http://www.w3.org/2000/svg">
<path d="M19.6891 9.32813H17.5859L19.2375 7.67656C19.2781 7.63594 19.3016 7.57969 19.3016 7.52344C19.3016 7.46563 19.2781 7.40938 19.2375 7.36875L18.5938 6.725C18.5528 6.68445 18.4975 6.6617 18.4398 6.6617C18.3822 6.6617 18.3269 6.68445 18.2859 6.725L15.6844 9.32813H11.6234L14.4953 6.45625H18.175C18.2953 6.45625 18.3922 6.35938 18.3922 6.23906V5.32813C18.3922 5.27188 18.3703 5.21563 18.3281 5.175C18.2875 5.13281 18.2328 5.11094 18.175 5.11094H15.8391L17.3266 3.625C17.3672 3.58438 17.3906 3.52813 17.3906 3.47188C17.3906 3.41406 17.3672 3.35781 17.3266 3.31719L16.6828 2.67344C16.6419 2.63289 16.5865 2.61014 16.5289 2.61014C16.4713 2.61014 16.416 2.63289 16.375 2.67344L14.8875 4.1625V1.825C14.8875 1.76875 14.8656 1.7125 14.8234 1.67188C14.7828 1.62969 14.7281 1.60781 14.6703 1.60781H13.7609C13.6406 1.60781 13.5438 1.70469 13.5438 1.825V5.50469L10.6719 8.37656V4.31563L13.275 1.71406C13.3156 1.6731 13.3383 1.61779 13.3383 1.56016C13.3383 1.50252 13.3156 1.44721 13.275 1.40625L12.6313 0.7625C12.5906 0.721875 12.5359 0.698438 12.4781 0.698438C12.4203 0.698438 12.3641 0.721875 12.325 0.7625L10.6719 2.41406V0.310938C10.6719 0.190625 10.575 0.09375 10.4547 0.09375H9.54531C9.425 0.09375 9.32813 0.190625 9.32813 0.310938V2.41406L7.67656 0.7625C7.59531 0.679688 7.45 0.679688 7.36875 0.7625L6.725 1.40625C6.68445 1.44721 6.6617 1.50252 6.6617 1.56016C6.6617 1.61779 6.68445 1.6731 6.725 1.71406L9.32656 4.31563V8.37656L6.45625 5.50469V1.825C6.45625 1.70469 6.35938 1.60781 6.23906 1.60781H5.32813C5.27031 1.60781 5.21563 1.62969 5.175 1.67188C5.13438 1.7125 5.11094 1.76719 5.11094 1.825V4.15938L3.625 2.67188C3.58404 2.63132 3.52873 2.60857 3.47109 2.60857C3.41346 2.60857 3.35815 2.63132 3.31719 2.67188L2.67344 3.31563C2.63289 3.35658 2.61014 3.41189 2.61014 3.46953C2.61014 3.52717 2.63289 3.58248 2.67344 3.62344L4.16094 5.10938H1.825C1.70469 5.10938 1.60781 5.20625 1.60781 5.32656V6.2375C1.60781 6.29531 1.62969 6.35 1.67188 6.39063C1.7125 6.43281 1.76875 6.45469 1.825 6.45469H5.50469L8.37656 9.32813H4.31563L1.71406 6.725C1.6731 6.68445 1.61779 6.6617 1.56016 6.6617C1.50252 6.6617 1.44721 6.68445 1.40625 6.725L0.7625 7.36875C0.742252 7.38894 0.726186 7.41293 0.715225 7.43934C0.704263 7.46575 0.69862 7.49406 0.69862 7.52266C0.69862 7.55125 0.704263 7.57957 0.715225 7.60598C0.726186 7.63239 0.742252 7.65637 0.7625 7.67656L2.41406 9.32813H0.310938C0.190625 9.32813 0.09375 9.42656 0.09375 9.54531V10.4547C0.09375 10.575 0.190625 10.6719 0.310938 10.6719H2.41406L0.7625 12.3219C0.721875 12.3641 0.698438 12.4172 0.698438 12.4766C0.698438 12.5328 0.720313 12.5891 0.7625 12.6297L1.40625 13.2734C1.44844 13.3172 1.50469 13.3375 1.55938 13.3375C1.61406 13.3375 1.67031 13.3172 1.7125 13.2734L4.31563 10.6719H8.37656L5.50469 13.5438H1.825C1.70469 13.5438 1.60781 13.6406 1.60781 13.7609V14.6703C1.60781 14.7281 1.63125 14.7844 1.67188 14.825C1.7125 14.8656 1.76719 14.8875 1.825 14.8875H4.16094L2.67344 16.3734C2.63289 16.4144 2.61014 16.4697 2.61014 16.5273C2.61014 16.585 2.63289 16.6403 2.67344 16.6813L3.31719 17.325C3.33721 17.3453 3.36106 17.3613 3.38734 17.3723C3.41363 17.3833 3.44183 17.3889 3.47031 17.3889C3.4988 17.3889 3.527 17.3833 3.55328 17.3723C3.57957 17.3613 3.60341 17.3453 3.62344 17.325L5.11094 15.8375V18.1734C5.11094 18.2313 5.13281 18.2859 5.175 18.3266C5.21563 18.3672 5.27031 18.3906 5.32813 18.3906L6.2375 18.3891C6.35781 18.3891 6.45469 18.2922 6.45469 18.1719V14.4953L9.325 11.6234V15.6844L6.72344 18.2859C6.68289 18.3269 6.66014 18.3822 6.66014 18.4398C6.66014 18.4975 6.68289 18.5528 6.72344 18.5938L7.36719 19.2375C7.40781 19.2781 7.4625 19.3 7.52031 19.3C7.57813 19.3 7.63438 19.2781 7.67344 19.2375L9.325 17.5859V19.6891C9.325 19.8094 9.42188 19.9063 9.54219 19.9063H10.4516C10.5719 19.9063 10.6688 19.8078 10.6688 19.6891V17.5859L12.3203 19.2375C12.3609 19.2781 12.4156 19.3 12.4734 19.3C12.5313 19.3 12.5859 19.2781 12.6266 19.2375L13.2703 18.5938C13.3109 18.5528 13.3336 18.4975 13.3336 18.4398C13.3336 18.3822 13.3109 18.3269 13.2703 18.2859L10.6719 15.6844V11.6219L13.5438 14.4938V18.1734C13.5438 18.2938 13.6406 18.3906 13.7609 18.3906H14.6703C14.7281 18.3906 14.7844 18.3688 14.8234 18.3281C14.8641 18.2875 14.8875 18.2328 14.8875 18.1734V15.8391L16.375 17.3266C16.395 17.3468 16.4189 17.3629 16.4452 17.3739C16.4714 17.3849 16.4996 17.3905 16.5281 17.3905C16.5566 17.3905 16.5848 17.3849 16.6111 17.3739C16.6374 17.3629 16.6612 17.3468 16.6813 17.3266L17.3234 16.6828C17.3438 16.6627 17.36 16.6387 17.371 16.6123C17.382 16.5859 17.3877 16.5575 17.3877 16.5289C17.3877 16.5003 17.382 16.4719 17.371 16.4455C17.36 16.4191 17.3438 16.3951 17.3234 16.375L15.8359 14.8891H18.1703C18.2906 14.8891 18.3875 14.7906 18.3875 14.6719V13.7625C18.3875 13.6422 18.2906 13.5453 18.1703 13.5453H14.4953L11.6234 10.6719H15.6844L18.2859 13.2734C18.3281 13.3172 18.3844 13.3375 18.4391 13.3375C18.4938 13.3375 18.55 13.3172 18.5922 13.2734L19.2359 12.6297C19.2563 12.6096 19.2725 12.5856 19.2835 12.5592C19.2945 12.5328 19.3002 12.5044 19.3002 12.4758C19.3002 12.4472 19.2945 12.4188 19.2835 12.3924C19.2725 12.366 19.2563 12.342 19.2359 12.3219L17.5859 10.6719H19.6891C19.8094 10.6719 19.9063 10.575 19.9063 10.4547V9.54531C19.9063 9.425 19.8094 9.32813 19.6891 9.32813V9.32813Z" fill="#40C0E7"/>
</svg>
