<svg width="15" height="15" viewBox="0 0 15 15" fill="none" xmlns="http://www.w3.org/2000/svg">
<path d="M13.9651 8.22422L10.4821 8.63455L8.43752 7.45415L10.4821 6.27375L13.9651 6.68411C13.9843 6.68637 14.0034 6.68748 14.0222 6.68748C14.2639 6.68748 14.4727 6.50654 14.5017 6.2606C14.5329 5.99546 14.3433 5.7552 14.0782 5.72397L11.8824 5.46527L13.2503 4.67552C13.4815 4.54201 13.5607 4.24638 13.4272 4.01517C13.2938 3.78396 12.9982 3.70471 12.7669 3.83821L11.399 4.62797L12.2728 2.59702C12.3784 2.35178 12.2651 2.06745 12.0199 1.96193C11.7747 1.85643 11.4903 1.96966 11.3848 2.2149L9.99863 5.43648L7.99581 6.59282V4.23193L10.0926 1.42075C10.2523 1.20674 10.2082 0.903868 9.99421 0.744259C9.78019 0.58465 9.47732 0.628712 9.31771 0.842726L7.99581 2.61495V1.19801C7.99581 0.931027 7.77936 0.714611 7.51241 0.714611C7.24546 0.714611 7.02901 0.931027 7.02901 1.19801V2.61498L5.70708 0.842726C5.54744 0.628712 5.24454 0.584679 5.03058 0.744259C4.81657 0.903898 4.77251 1.20677 4.93212 1.42075L7.02901 4.23196V6.64093L4.94275 5.43642L3.55663 2.2149C3.4511 1.96969 3.16678 1.85643 2.92153 1.96193C2.67629 2.06745 2.56303 2.35181 2.66855 2.59702L3.54242 4.62797L2.31529 3.91948C2.08408 3.78604 1.78845 3.86523 1.65494 4.09644C1.52146 4.32765 1.60065 4.62328 1.83189 4.75679L3.05902 5.46527L0.863222 5.72397C0.598085 5.7552 0.408476 5.99546 0.439706 6.2606C0.468681 6.50654 0.677479 6.68751 0.919179 6.68748C0.938046 6.68748 0.957147 6.68637 0.976337 6.68411L4.45938 6.27375L6.50392 7.45412L4.45938 8.63455L0.976366 8.22422C0.711141 8.19302 0.470966 8.38257 0.439735 8.64773C0.408505 8.91287 0.598114 9.15314 0.863251 9.18437L3.05902 9.44306L1.83192 10.1515C1.60071 10.285 1.52149 10.5806 1.65497 10.8118C1.7445 10.9669 1.90698 11.0536 2.07406 11.0536C2.15606 11.0536 2.23918 11.0327 2.31529 10.9888L3.54245 10.2803L2.66855 12.3112C2.56303 12.5565 2.67632 12.8408 2.92153 12.9463C2.98179 12.9724 3.04673 12.9858 3.11237 12.9858C3.29967 12.9858 3.47794 12.8764 3.55666 12.6934L4.94281 9.47183L7.02904 8.26734V10.6282L4.93215 13.4394C4.77254 13.6534 4.8166 13.9563 5.03061 14.1159C5.11392 14.1782 5.21521 14.2119 5.31928 14.2118C5.46667 14.2118 5.61221 14.1446 5.70714 14.0174L7.02907 12.2452V13.8247C7.02907 14.0916 7.24549 14.3081 7.51247 14.3081C7.77945 14.3081 7.99587 14.0916 7.99587 13.8247V12.2452L9.31777 14.0174C9.47738 14.2315 9.78031 14.2755 9.99426 14.1158C10.2083 13.9562 10.2524 13.6534 10.0927 13.4394L7.99587 10.6282V8.31545L9.99869 9.47177L11.3848 12.6933C11.4636 12.8763 11.6418 12.9858 11.8291 12.9858C11.8947 12.9858 11.9597 12.9723 12.0199 12.9463C12.2652 12.8408 12.3784 12.5564 12.2729 12.3112L11.3991 10.2802L12.767 11.07C12.8403 11.1125 12.9235 11.1349 13.0082 11.1349C13.1753 11.1349 13.3378 11.0481 13.4273 10.8931C13.5608 10.6619 13.4816 10.3662 13.2504 10.2328L11.8825 9.443L14.0782 9.18431C14.3434 9.15308 14.533 8.91278 14.5018 8.64768C14.4705 8.38263 14.2304 8.19299 13.9651 8.22422V8.22422Z" fill="#59CAFC"/>
</svg>
