<svg width="10" height="10" viewBox="0 0 10 10" fill="none" xmlns="http://www.w3.org/2000/svg">
<path d="M9.84453 4.66406H8.79297L9.61875 3.83828C9.63906 3.81797 9.65078 3.78984 9.65078 3.76172C9.65078 3.73281 9.63906 3.70469 9.61875 3.68438L9.29688 3.3625C9.2764 3.34222 9.24874 3.33085 9.21992 3.33085C9.1911 3.33085 9.16345 3.34222 9.14297 3.3625L7.84219 4.66406H5.81172L7.24766 3.22813H9.0875C9.14766 3.22813 9.1961 3.17969 9.1961 3.11953V2.66406C9.1961 2.63594 9.18516 2.60781 9.16406 2.5875C9.14375 2.56641 9.11641 2.55547 9.0875 2.55547H7.91953L8.66328 1.8125C8.6836 1.79219 8.69531 1.76406 8.69531 1.73594C8.69531 1.70703 8.6836 1.67891 8.66328 1.65859L8.34141 1.33672C8.32093 1.31644 8.29327 1.30507 8.26446 1.30507C8.23564 1.30507 8.20798 1.31644 8.1875 1.33672L7.44375 2.08125V0.9125C7.44375 0.884375 7.43281 0.85625 7.41172 0.835938C7.39141 0.814844 7.36406 0.803906 7.33516 0.803906H6.88047C6.82031 0.803906 6.77188 0.852344 6.77188 0.9125V2.75234L5.33594 4.18828V2.15781L6.6375 0.857031C6.65778 0.836552 6.66915 0.808897 6.66915 0.780078C6.66915 0.751259 6.65778 0.723605 6.6375 0.703125L6.31563 0.38125C6.29531 0.360938 6.26797 0.349219 6.23906 0.349219C6.21016 0.349219 6.18203 0.360938 6.1625 0.38125L5.33594 1.20703V0.155469C5.33594 0.0953125 5.2875 0.046875 5.22735 0.046875H4.77266C4.7125 0.046875 4.66406 0.0953125 4.66406 0.155469V1.20703L3.83828 0.38125C3.79766 0.339844 3.725 0.339844 3.68438 0.38125L3.3625 0.703125C3.34222 0.723605 3.33085 0.751259 3.33085 0.780078C3.33085 0.808897 3.34222 0.836552 3.3625 0.857031L4.66328 2.15781V4.18828L3.22813 2.75234V0.9125C3.22813 0.852344 3.17969 0.803906 3.11953 0.803906H2.66406C2.63516 0.803906 2.60781 0.814844 2.5875 0.835938C2.56719 0.85625 2.55547 0.883594 2.55547 0.9125V2.07969L1.8125 1.33594C1.79202 1.31566 1.76437 1.30429 1.73555 1.30429C1.70673 1.30429 1.67907 1.31566 1.65859 1.33594L1.33672 1.65781C1.31644 1.67829 1.30507 1.70595 1.30507 1.73477C1.30507 1.76358 1.31644 1.79124 1.33672 1.81172L2.08047 2.55469H0.9125C0.852344 2.55469 0.803906 2.60313 0.803906 2.66328V3.11875C0.803906 3.14766 0.814844 3.175 0.835938 3.19531C0.85625 3.21641 0.884375 3.22734 0.9125 3.22734H2.75234L4.18828 4.66406H2.15781L0.857031 3.3625C0.836552 3.34222 0.808897 3.33085 0.780078 3.33085C0.751259 3.33085 0.723605 3.34222 0.703125 3.3625L0.38125 3.68438C0.371126 3.69447 0.363093 3.70646 0.357612 3.71967C0.352131 3.73287 0.34931 3.74703 0.34931 3.76133C0.34931 3.77563 0.352131 3.78978 0.357612 3.80299C0.363093 3.81619 0.371126 3.82819 0.38125 3.83828L1.20703 4.66406H0.155469C0.0953125 4.66406 0.046875 4.71328 0.046875 4.77266V5.22735C0.046875 5.2875 0.0953125 5.33594 0.155469 5.33594H1.20703L0.38125 6.16094C0.360938 6.18203 0.349219 6.20859 0.349219 6.23828C0.349219 6.26641 0.360156 6.29453 0.38125 6.31485L0.703125 6.63672C0.724219 6.65859 0.752344 6.66875 0.779688 6.66875C0.807031 6.66875 0.835156 6.65859 0.85625 6.63672L2.15781 5.33594H4.18828L2.75234 6.77188H0.9125C0.852344 6.77188 0.803906 6.82031 0.803906 6.88047V7.33516C0.803906 7.36406 0.815625 7.39219 0.835938 7.4125C0.85625 7.43281 0.883594 7.44375 0.9125 7.44375H2.08047L1.33672 8.18672C1.31644 8.2072 1.30507 8.23485 1.30507 8.26367C1.30507 8.29249 1.31644 8.32015 1.33672 8.34063L1.65859 8.6625C1.66861 8.67263 1.68053 8.68067 1.69367 8.68616C1.70681 8.69165 1.72091 8.69447 1.73516 8.69447C1.7494 8.69447 1.7635 8.69165 1.77664 8.68616C1.78978 8.68067 1.80171 8.67263 1.81172 8.6625L2.55547 7.91875V9.08672C2.55547 9.11563 2.56641 9.14297 2.5875 9.16328C2.60781 9.1836 2.63516 9.19531 2.66406 9.19531L3.11875 9.19453C3.17891 9.19453 3.22734 9.1461 3.22734 9.08594V7.24766L4.6625 5.81172V7.84219L3.36172 9.14297C3.34144 9.16345 3.33007 9.1911 3.33007 9.21992C3.33007 9.24874 3.34144 9.2764 3.36172 9.29688L3.68359 9.61875C3.70391 9.63906 3.73125 9.65 3.76016 9.65C3.78906 9.65 3.81719 9.63906 3.83672 9.61875L4.6625 8.79297V9.84453C4.6625 9.90469 4.71094 9.95313 4.77109 9.95313H5.22578C5.28594 9.95313 5.33438 9.90391 5.33438 9.84453V8.79297L6.16016 9.61875C6.18047 9.63906 6.20781 9.65 6.23672 9.65C6.26563 9.65 6.29297 9.63906 6.31328 9.61875L6.63516 9.29688C6.65543 9.2764 6.66681 9.24874 6.66681 9.21992C6.66681 9.1911 6.65543 9.16345 6.63516 9.14297L5.33594 7.84219V5.81094L6.77188 7.24688V9.08672C6.77188 9.14688 6.82031 9.19531 6.88047 9.19531H7.33516C7.36406 9.19531 7.39219 9.18438 7.41172 9.16406C7.43203 9.14375 7.44375 9.11641 7.44375 9.08672V7.91953L8.1875 8.66328C8.19751 8.67341 8.20944 8.68145 8.22258 8.68694C8.23572 8.69243 8.24982 8.69526 8.26406 8.69526C8.27831 8.69526 8.29241 8.69243 8.30555 8.68694C8.31869 8.68145 8.33061 8.67341 8.34063 8.66328L8.66172 8.34141C8.6719 8.33134 8.67998 8.31936 8.6855 8.30615C8.69102 8.29294 8.69386 8.27877 8.69386 8.26446C8.69386 8.25014 8.69102 8.23597 8.6855 8.22276C8.67998 8.20955 8.6719 8.19757 8.66172 8.1875L7.91797 7.44453H9.08516C9.14531 7.44453 9.19375 7.39531 9.19375 7.33594V6.88125C9.19375 6.8211 9.14531 6.77266 9.08516 6.77266H7.24766L5.81172 5.33594H7.84219L9.14297 6.63672C9.16406 6.65859 9.19219 6.66875 9.21953 6.66875C9.24688 6.66875 9.275 6.65859 9.2961 6.63672L9.61797 6.31485C9.62815 6.30478 9.63623 6.2928 9.64175 6.27959C9.64727 6.26638 9.65011 6.25221 9.65011 6.23789C9.65011 6.22358 9.64727 6.2094 9.64175 6.19619C9.63623 6.18299 9.62815 6.171 9.61797 6.16094L8.79297 5.33594H9.84453C9.90469 5.33594 9.95313 5.2875 9.95313 5.22735V4.77266C9.95313 4.7125 9.90469 4.66406 9.84453 4.66406V4.66406Z" fill="#40C0E7"/>
</svg>
