<svg width="34" height="34" viewBox="0 0 34 34" fill="none" xmlns="http://www.w3.org/2000/svg">
<g clip-path="url(#clip0_416_6)">
<path d="M32.9248 20.3415L30.863 18.2808H31.527C32.7712 18.2808 34.1084 17.8972 34.1084 17.0578V17.0536V17.0493C34.1084 16.21 32.7696 15.8264 31.5249 15.8264H30.8704L32.7208 13.9766C33.601 13.0974 34.2768 11.8803 33.6839 11.2858C33.5819 11.1849 33.3992 11.0648 33.1006 11.0648C32.5311 11.0648 31.7241 11.5196 30.9937 12.249L27.8758 15.3674C27.7254 15.5167 27.591 15.6723 27.4651 15.8264H19.9479L25.2817 10.4927C25.2902 10.4863 25.2992 10.4757 25.3066 10.4677L25.3226 10.4528C25.6142 10.4979 25.9089 10.5202 26.2039 10.5198H30.6122C31.8575 10.5198 33.1968 10.1373 33.1968 9.29788C33.1968 8.45957 31.858 8.076 30.6144 8.076H27.6983L28.1669 7.6085C28.6142 7.16119 28.9717 6.66819 29.1725 6.22088C29.3144 5.90372 29.3564 5.65669 29.3468 5.46013V5.45588C29.3468 5.34379 29.3213 5.24763 29.2915 5.17007C29.2884 5.16263 29.2846 5.15838 29.2825 5.15307C29.2472 5.0657 29.1957 4.98584 29.1306 4.91772H29.1279C29.028 4.81572 28.8442 4.69513 28.5457 4.69513C27.9751 4.69513 27.1671 5.14988 26.4366 5.88141L25.9734 6.34466V3.72613C25.9734 2.48247 25.5919 1.14372 24.7515 1.14372C23.9121 1.14372 23.5307 2.48247 23.5307 3.72613L23.5317 8.13657C23.5317 8.34747 23.5461 8.55147 23.5663 8.75229L18.2925 14.0233V6.66554V6.60232C18.5189 6.43816 18.7425 6.25329 18.963 6.03388L22.0814 2.91651C22.9617 2.03516 23.6375 0.818599 23.044 0.226256C22.9442 0.124787 22.762 0.00366211 22.4634 0.00366211C21.8934 0.00366211 21.0848 0.458412 20.3549 1.18888L18.2931 3.25013V2.58713C18.2931 1.34241 17.9122 0.00366211 17.0728 0.00366211L17.0696 0.00472461L17.0632 0.00366211C16.2249 0.00366211 15.8414 1.34401 15.8414 2.58819V3.24269L13.9905 1.39235C13.2611 0.662412 12.453 0.208193 11.8841 0.208193C11.5855 0.208193 11.4028 0.329318 11.3008 0.429725C11.1387 0.591756 10.9193 0.974787 11.2588 1.73288C11.4607 2.18019 11.8155 2.67319 12.2645 3.11944L15.3829 6.23788C15.5332 6.38822 15.6889 6.51944 15.8419 6.64588V14.0063L10.5985 8.76238C10.59 8.75282 10.5793 8.74325 10.5708 8.73529L10.5549 8.72041C10.6 8.43354 10.6234 8.13497 10.6234 7.83907V3.43076C10.6234 2.18657 10.242 0.847287 9.40154 0.847287C8.56323 0.847287 8.18073 2.18497 8.18073 3.42969V6.34519L7.71217 5.87663C6.98117 5.14563 6.1742 4.69247 5.60683 4.69247C5.30614 4.69247 5.12339 4.81254 5.02245 4.914H5.02086C5.01926 4.91772 5.02086 4.91825 5.01342 4.92038C5.01129 4.92357 5.01129 4.92622 5.0097 4.92888C4.95138 4.98983 4.90443 5.06072 4.87104 5.13819C4.85404 5.17591 4.84448 5.21469 4.83545 5.25347C4.82536 5.28216 4.82111 5.3135 4.81526 5.3475C4.7122 5.99032 5.27426 6.90672 5.97817 7.61169L6.44248 8.07494H3.82554C2.58029 8.07494 1.24208 8.45744 1.24208 9.29682C1.24208 10.1362 2.58083 10.5166 3.82554 10.5166H8.23811C8.44848 10.5166 8.64983 10.5038 8.84851 10.482L14.1982 15.8317H6.61461C6.43866 15.595 6.24623 15.3709 6.03873 15.1613L2.92029 12.0439C2.19089 11.3134 1.38339 10.8598 0.812825 10.8598C0.515325 10.8598 0.331513 10.9809 0.231107 11.0813C-0.362831 11.6736 0.312919 12.8907 1.19373 13.7699L3.25498 15.8312H2.59198C1.34726 15.8312 0.00851283 16.2148 0.00851283 17.0541L0.0106378 17.0584L0.00851283 17.0626C0.00851283 17.902 1.34886 18.2856 2.59304 18.2856H3.24861L1.39826 20.1359C0.517982 21.0157 -0.157768 22.2322 0.435107 22.8267C0.536044 22.9271 0.718794 23.0472 1.01842 23.0472C1.58792 23.0472 2.39595 22.5924 3.12483 21.863L6.24326 18.7446C6.39254 18.5958 6.52801 18.4402 6.65392 18.2856H14.0346L8.86126 23.4578C8.85064 23.4674 8.84161 23.478 8.82992 23.4886L8.81929 23.5008C8.52797 23.4564 8.23371 23.434 7.93901 23.4339H3.52804C2.28439 23.4339 0.943513 23.8153 0.943513 24.6547C0.943513 25.4941 2.28386 25.8766 3.52804 25.8766H6.44248L5.97392 26.3452C5.52661 26.7919 5.1712 27.2849 4.96933 27.7328C4.82642 28.0494 4.78658 28.297 4.79508 28.4941V28.4972C4.80145 28.6104 4.82111 28.7055 4.84979 28.7841C4.85365 28.789 4.85654 28.7946 4.85829 28.8006C4.90133 28.9053 4.95923 28.9833 5.01183 29.0349C5.01395 29.0359 5.01395 29.0381 5.01608 29.0391C5.0182 29.0412 5.0182 29.0412 5.0182 29.0423C5.11967 29.1427 5.30189 29.2628 5.60257 29.2628C6.16995 29.2628 6.97851 28.8096 7.71004 28.0781L8.17223 27.6159V30.2318C8.17223 31.477 8.55473 32.8152 9.39517 32.8152C9.62201 32.8152 10.0486 32.6984 10.344 31.9243C10.5198 31.4664 10.6149 30.865 10.6149 30.2312V25.8235C10.6149 25.6126 10.6006 25.4075 10.5804 25.2078L15.8419 19.9463V27.5155C15.6172 27.6797 15.3903 27.864 15.1715 28.0839L12.0541 31.2008C11.1727 32.0821 10.4959 33.2987 11.0909 33.8916C11.1919 33.993 11.3757 34.1142 11.6742 34.1142C12.2448 34.1142 13.0507 33.6594 13.7806 32.9295L15.8419 30.8677V31.5307C15.8419 32.7759 16.2255 34.1142 17.0638 34.1142V34.1131L17.068 34.1142C17.9074 34.1142 18.2888 32.7738 18.2888 31.5296V30.8757L20.1392 32.7255C20.8691 33.4554 21.6777 33.9096 22.2477 33.9096C22.5463 33.9096 22.7301 33.7885 22.83 33.6881C22.992 33.5261 23.2125 33.143 22.8719 32.3855C22.6722 31.9387 22.3152 31.4446 21.8673 30.9984L18.7489 27.8805C18.598 27.7301 18.4445 27.5989 18.2888 27.4725V19.9298L23.5525 25.1934C23.5588 25.2008 23.5673 25.2078 23.5748 25.2163L23.5923 25.2333C23.5478 25.5246 23.5254 25.8188 23.5254 26.1135V30.5229C23.5254 31.7682 23.9079 33.1064 24.7472 33.1064C25.5855 33.1064 25.9691 31.7676 25.9691 30.5229V27.6085L26.4377 28.0765C27.1671 28.8075 27.9762 29.2622 28.5457 29.2622C28.8442 29.2622 29.0275 29.1411 29.1279 29.0397C29.1279 29.0375 29.13 29.0365 29.13 29.0365C29.1968 28.9689 29.2496 28.8887 29.2852 28.8006L29.2953 28.7793C29.3255 28.7018 29.3425 28.6093 29.3505 28.5015V28.4866C29.3569 28.2906 29.3149 28.0436 29.1763 27.7301C28.9765 27.2828 28.6195 26.7893 28.1706 26.3414L27.7074 25.8793H30.3254C31.5695 25.8793 32.9078 25.4957 32.9078 24.6584C32.9078 23.818 31.569 23.4366 30.3254 23.4366H25.9107C25.7077 23.4366 25.5027 23.4509 25.3003 23.4706L20.1153 18.2866H27.5055C27.6787 18.5193 27.8742 18.7467 28.0824 18.9571L31.1993 22.0744C31.9297 22.8044 32.7378 23.2586 33.3073 23.2586C33.6058 23.2586 33.788 23.1375 33.8895 23.0371C34.4829 22.4447 33.8066 21.2282 32.9264 20.3479" fill="#1B75BB"/>
<path d="M19.3109 2.58347V3.24647L21.3722 1.18522C21.8864 0.6715 22.4347 0.306 22.9133 0.128031C22.8071 0.0589688 22.6594 0 22.4543 0C21.8843 0 21.0757 0.45475 20.3458 1.18522L19.2982 2.23497C19.304 2.35025 19.3109 2.46712 19.3109 2.58347Z" fill="#1C679A"/>
<path d="M16.8613 3.23903V2.58453C16.8613 1.62828 17.0892 0.623156 17.5743 0.205063C17.4276 0.078625 17.2592 0 17.0659 0L17.0627 0.0010625L17.0563 0C16.2966 0 15.9152 1.0965 15.8472 2.22753L16.8613 3.23903" fill="#1C679A"/>
<path d="M24.1399 1.44336C24.0408 1.67289 23.9187 1.89182 23.7755 2.0968C23.6087 2.56855 23.5232 3.15292 23.5232 3.72242L23.5242 8.13286C23.5242 8.34377 23.5386 8.54777 23.5588 8.74858L19.312 12.9943V14.0196L24.583 8.74858C24.5618 8.54401 24.5506 8.33852 24.5495 8.13286V3.72242C24.5495 2.76989 24.7769 1.76742 25.2577 1.34773C25.1111 1.21864 24.9405 1.14001 24.744 1.14001C24.507 1.14001 24.3073 1.25848 24.1399 1.44336" fill="#1C679A"/>
<path d="M9.25757 10.5129H8.8772L14.1897 15.8254H15.2161L9.86639 10.4757C9.66409 10.4988 9.46065 10.5105 9.25704 10.5108" fill="#1C679A"/>
<path d="M11.5036 2.18031C11.7013 2.49428 11.9557 2.81621 12.257 3.11637L15.3754 6.23481C15.5257 6.38515 15.6814 6.51637 15.8344 6.64281V12.9769L16.8613 14.0033V6.64228C16.7009 6.51481 16.5477 6.3786 16.4023 6.23428L13.2828 3.11584C12.8355 2.66959 12.478 2.17659 12.2782 1.72928C11.9366 0.971715 12.1576 0.588152 12.3202 0.426121C12.3575 0.390917 12.3981 0.35926 12.4413 0.331559C12.2394 0.254527 12.046 0.20459 11.8771 0.20459C11.5785 0.20459 11.3958 0.325715 11.2938 0.426121C11.1727 0.547777 11.0186 0.792684 11.0935 1.22778C11.2768 1.4679 11.4123 1.79993 11.5036 2.18031" fill="#1C679A"/>
<path d="M26.3245 23.4653C26.5274 23.4456 26.7319 23.4313 26.9343 23.4313H26.2883L26.3245 23.4653Z" fill="#1C679A"/>
<path d="M26.3075 10.4948L26.2825 10.5219H27.2308C26.9344 10.5219 26.6353 10.4996 26.3495 10.455L26.3341 10.4698C26.3245 10.4778 26.3155 10.4884 26.3075 10.4948" fill="#1C679A"/>
<path d="M27.4651 15.827H28.4909C28.6179 15.6724 28.7523 15.5173 28.9005 15.368L32.019 12.2495C32.5316 11.7369 33.0809 11.3714 33.5601 11.1918C33.4227 11.1058 33.2632 11.0619 33.1011 11.0654C32.5316 11.0654 31.7246 11.5201 30.9942 12.2495L27.8763 15.368C27.7254 15.5167 27.5915 15.6724 27.4651 15.827Z" fill="#1C679A"/>
<path d="M32.2203 22.0687L29.1029 18.9513C28.8949 18.7425 28.7028 18.5184 28.5281 18.2809H27.5007C27.6739 18.5136 27.8694 18.7409 28.0776 18.9513L31.1945 22.0687C31.9249 22.7986 32.733 23.2529 33.3025 23.2529C33.5086 23.2529 33.6552 23.1955 33.7636 23.1259C33.2812 22.9479 32.734 22.5824 32.2203 22.0687Z" fill="#1C679A"/>
<path d="M9.83875 23.4971L9.84991 23.4849L9.87966 23.4541L15.054 18.2819H14.0277L8.87878 23.4302H8.95635C9.25119 23.4302 9.55188 23.453 9.83875 23.4971" fill="#1C679A"/>
<path d="M26.9938 6.34051L27.4571 5.87726C27.9697 5.36355 28.5191 4.99698 28.9993 4.81848C28.8617 4.73186 28.7018 4.68753 28.5392 4.69098C28.1121 4.69098 27.5527 4.94758 26.9938 5.38001V6.34051Z" fill="#1C679A"/>
<path d="M1.5762 22.9181C1.53252 22.8904 1.49145 22.8587 1.45348 22.8236C0.85901 22.2291 1.53742 21.0126 2.4161 20.1333L4.26751 18.283H3.61248C2.36723 18.283 1.02689 17.8994 1.02689 17.0601C1.02689 17.059 1.03007 17.0569 1.03007 17.0558C1.03007 17.0547 1.02689 17.0526 1.02689 17.0516C1.02689 16.2122 2.36723 15.8286 3.61142 15.8286H4.27442L2.21423 13.7674C1.33182 12.8881 0.656073 11.6711 1.25001 11.0787C1.28135 11.0474 1.32439 11.0155 1.37273 10.9831C1.17032 10.9076 0.976948 10.8572 0.806416 10.8572C0.508917 10.8572 0.325104 10.9783 0.224698 11.0787C-0.36924 11.6711 0.30651 12.8881 1.18732 13.7674L3.24857 15.8286H2.58504C1.34032 15.8286 0.00157289 16.2122 0.00157289 17.0516L0.00369789 17.0558L0.00157289 17.0601C0.00157289 17.8994 1.34192 18.283 2.5861 18.283H3.24167L1.39132 20.1333C0.511042 21.0126 -0.164708 22.2291 0.428167 22.8236C0.529104 22.924 0.711854 23.0441 1.01148 23.0441C1.18042 23.0441 1.37379 22.9925 1.5762 22.9181Z" fill="#1C679A"/>
<path d="M16.8613 31.5243V30.8613L15.8472 31.8734C15.9136 33.007 16.2961 34.1078 17.0563 34.1078V34.1067L17.0605 34.1078C17.2539 34.1078 17.4223 34.0292 17.569 33.9027C17.0834 33.4846 16.856 32.4806 16.856 31.5243" fill="#1C679A"/>
<path d="M12.1088 33.8853C11.5164 33.2924 12.1917 32.0758 13.0719 31.1945L16.1904 28.0776C16.4098 27.8577 16.6345 27.6728 16.8608 27.5092V27.4747V19.9399L15.8339 20.9668V27.5076C15.6092 27.6718 15.3823 27.8561 15.1635 28.076L12.0461 31.1929C11.1647 32.0742 10.4879 33.2908 11.0829 33.8837C11.1839 33.9851 11.3677 34.1063 11.6662 34.1063C11.8352 34.1063 12.0296 34.0547 12.2304 33.9782C12.1867 33.9512 12.1459 33.9197 12.1088 33.8842" fill="#1C679A"/>
<path d="M21.1634 32.7197L19.3135 30.8699V31.5238C19.3135 31.6428 19.3061 31.7624 19.3013 31.8814L20.1375 32.7197C20.8675 33.4496 21.676 33.9038 22.246 33.9038C22.4511 33.9038 22.5993 33.8465 22.7061 33.7769C22.2259 33.5978 21.676 33.2334 21.1634 32.7197" fill="#1C679A"/>
<path d="M24.549 30.515V26.1056C24.549 25.8113 24.5724 25.5106 24.6176 25.2253L24.5995 25.2083C24.5921 25.1998 24.5841 25.1929 24.5767 25.1855L19.3141 19.9219V20.9472L23.5513 25.186C23.5577 25.1935 23.5662 25.2004 23.5737 25.2089L23.5912 25.2259C23.5467 25.5172 23.5243 25.8115 23.5242 26.1062V30.5155C23.5242 31.0914 23.6103 31.6806 23.7824 32.1566C23.8223 32.2315 23.8653 32.3058 23.8972 32.3776C23.9285 32.4466 23.9498 32.5077 23.9716 32.5704C24.1639 32.8918 24.4194 33.099 24.7461 33.099C24.9427 33.099 25.1127 33.0204 25.2588 32.8907C24.7764 32.4716 24.549 31.4681 24.549 30.515" fill="#1C679A"/>
<path d="M27.4608 28.0702L26.9933 27.6022V28.5637C27.5554 28.9988 28.1143 29.2565 28.543 29.2565C28.7481 29.2565 28.8958 29.198 29.002 29.1285C28.5218 28.9505 27.9735 28.5839 27.4608 28.0702" fill="#1C679A"/>
<path d="M3.81858 10.5129H4.84283C3.5997 10.5129 2.26148 10.1325 2.25936 9.29316C2.25936 8.45326 3.5997 8.07129 4.84283 8.07129H3.81858C2.57333 8.07129 1.23511 8.45379 1.23511 9.29316C1.23511 10.1325 2.57333 10.5129 3.81858 10.5129Z" fill="#1C679A"/>
<path d="M8.73052 5.87033L9.19908 6.33889V3.42339C9.19908 2.47033 9.42699 1.4668 9.90936 1.04764C9.76114 0.918548 9.5922 0.840454 9.39458 0.840454C8.55627 0.840454 8.17377 2.17814 8.17377 3.42286V5.37574C8.36024 5.52236 8.5483 5.68758 8.73052 5.87033Z" fill="#1C679A"/>
<path d="M9.19164 30.2265V27.6106L8.72786 28.0728C8.55125 28.251 8.36314 28.4175 8.16473 28.5711V30.2265C8.16473 31.4717 8.54723 32.8099 9.38767 32.8099C9.51358 32.8099 9.70483 32.769 9.8982 32.6017C9.41636 32.182 9.19164 31.1795 9.19164 30.2265" fill="#1C679A"/>
<path d="M6.43342 8.07078H7.45873L6.99654 7.60753C6.29051 6.90256 5.72739 5.98615 5.83257 5.34334C5.83534 5.31155 5.84176 5.28017 5.8517 5.24984C5.8602 5.21106 5.87189 5.17228 5.88729 5.13456C5.92714 5.04319 5.9776 4.97572 6.02595 4.92525C6.02914 4.92206 6.02914 4.92472 6.03232 4.91675C6.03339 4.91462 6.03657 4.91356 6.03285 4.91037H6.03498C6.06632 4.8785 6.10935 4.84609 6.1577 4.81475C5.9537 4.74037 5.76032 4.68884 5.59245 4.68884C5.29176 4.68884 5.10901 4.80891 5.00807 4.91037H5.00701C5.00542 4.91409 5.00648 4.91462 4.99957 4.91675C4.99745 4.91994 4.99745 4.92259 4.99585 4.92525C4.93754 4.9862 4.89058 5.05709 4.8572 5.13456C4.8402 5.17228 4.83064 5.21106 4.8216 5.24984C4.81151 5.27853 4.80726 5.30987 4.80142 5.34387C4.69835 5.98669 5.26042 6.90309 5.96432 7.60806L6.42864 8.07078" fill="#1C679A"/>
<path d="M1.96402 24.65C1.96402 23.8106 3.30277 23.4292 4.54749 23.4292H3.52112C2.27746 23.4292 0.936584 23.8106 0.936584 24.65C0.936584 25.4894 2.27693 25.8719 3.52112 25.8719H4.54749C3.30277 25.8719 1.96402 25.4894 1.96402 24.65Z" fill="#1C679A"/>
<path d="M6.03655 29.0375L6.03549 29.0344C6.03443 29.0333 6.03124 29.0312 6.03496 29.0301C5.96907 28.9627 5.91693 28.8831 5.88143 28.7958C5.88036 28.7953 5.88089 28.7852 5.87505 28.7794C5.84007 28.6876 5.82086 28.5906 5.81821 28.4925V28.4893C5.80864 28.2927 5.85114 28.0446 5.99246 27.728C6.19327 27.2796 6.55027 26.7872 6.99705 26.3404L7.46561 25.8718H6.4403L5.97174 26.3404C5.52443 26.7872 5.16902 27.2802 4.96715 27.728C4.82424 28.0446 4.7844 28.2922 4.7929 28.4893V28.4925C4.79927 28.6056 4.81893 28.7007 4.84761 28.7794C4.85147 28.7843 4.85436 28.7898 4.85611 28.7958C4.89914 28.9005 4.95705 28.9786 5.00965 29.0301C5.01177 29.0312 5.01177 29.0333 5.01389 29.0344C5.01602 29.0365 5.01602 29.0365 5.01602 29.0375C5.11749 29.1379 5.29971 29.258 5.60039 29.258C5.76827 29.258 5.96164 29.2075 6.16564 29.1321C6.12139 29.1045 6.07978 29.0728 6.04133 29.0375" fill="#1C679A"/>
</g>
<defs>
<clipPath id="clip0_416_6">
<rect width="34" height="34" fill="white"/>
</clipPath>
</defs>
</svg>
