<svg width="20" height="20" viewBox="0 0 20 20" fill="none" xmlns="http://www.w3.org/2000/svg">
<path d="M18.9062 9.53125H16.75L18.0625 8.21875C18.25 8.03125 18.25 7.75 18.0625 7.5625C17.875 7.375 17.5938 7.375 17.4063 7.5625L15.4375 9.53125H13.9688L14.75 8.75C14.9375 8.5625 14.9375 8.28125 14.75 8.09375C14.5625 7.90625 14.2812 7.90625 14.0937 8.09375L12.6562 9.53125H11.1563L13.9688 6.71875H16.75C17 6.71875 17.2187 6.5 17.2187 6.25C17.2187 6 17 5.78125 16.75 5.78125H14.9063L16.625 4.0625C16.8125 3.875 16.8125 3.59375 16.625 3.40625C16.4375 3.21875 16.1562 3.21875 15.9687 3.40625L14.25 5.125V3.28125C14.2187 3 14.0312 2.8125 13.75 2.8125C13.4688 2.8125 13.2812 3.03125 13.2812 3.28125V6.0625L10.4688 8.875V7.375L11.9062 5.9375C12.0937 5.75 12.0937 5.46875 11.9062 5.28125C11.7187 5.09375 11.4375 5.09375 11.25 5.28125L10.4688 6.0625V4.59375L12.4375 2.625C12.625 2.4375 12.625 2.15625 12.4375 1.96875C12.25 1.78125 11.9688 1.78125 11.7813 1.96875L10.4688 3.28125V1.09375C10.4688 0.84375 10.25 0.625 10 0.625C9.75 0.625 9.53125 0.84375 9.53125 1.09375V3.25L8.21875 1.9375C8.03125 1.75 7.75 1.75 7.5625 1.9375C7.375 2.125 7.375 2.40625 7.5625 2.59375L9.53125 4.5625V6.03125L8.75 5.25C8.5625 5.0625 8.28125 5.0625 8.09375 5.25C7.90625 5.4375 7.90625 5.71875 8.09375 5.90625L9.53125 7.34375V8.84375L6.71875 6.03125V3.25C6.71875 3 6.5 2.8125 6.25 2.8125C6 2.8125 5.78125 3.03125 5.78125 3.28125V5.125L4.0625 3.40625C3.875 3.21875 3.59375 3.21875 3.40625 3.40625C3.21875 3.59375 3.21875 3.875 3.40625 4.0625L5.125 5.78125H3.28125C3 5.78125 2.8125 5.96875 2.8125 6.25C2.8125 6.53125 3.03125 6.71875 3.28125 6.71875H6.0625L8.875 9.53125H7.375L5.9375 8.09375C5.75 7.90625 5.46875 7.90625 5.28125 8.09375C5.09375 8.28125 5.09375 8.5625 5.28125 8.75L6.0625 9.53125H4.59375L2.625 7.5625C2.4375 7.375 2.15625 7.375 1.96875 7.5625C1.78125 7.75 1.78125 8.03125 1.96875 8.21875L3.28125 9.53125H1.09375C0.84375 9.53125 0.625 9.75 0.625 10C0.625 10.25 0.84375 10.4688 1.09375 10.4688H3.25L1.9375 11.7813C1.75 11.9688 1.75 12.25 1.9375 12.4375C2.03125 12.5312 2.15625 12.5625 2.28125 12.5625C2.40625 12.5625 2.53125 12.5312 2.625 12.4375L4.59375 10.4688H6.0625L5.25 11.25C5.0625 11.4375 5.0625 11.7187 5.25 11.9062C5.34375 12 5.46875 12.0312 5.59375 12.0312C5.71875 12.0312 5.84375 12 5.9375 11.9062L7.375 10.4688H8.875L6.0625 13.2812H3.28125C3 13.2812 2.8125 13.5 2.8125 13.75C2.8125 14 3.03125 14.2188 3.28125 14.2188H5.125L3.40625 15.9375C3.21875 16.125 3.21875 16.4062 3.40625 16.5937C3.5 16.6875 3.625 16.7188 3.75 16.7188C3.875 16.7188 4 16.6875 4.09375 16.5937L5.8125 14.875V16.7188C5.8125 16.9688 6.03125 17.1875 6.28125 17.1875C6.53125 17.1875 6.75 16.9688 6.75 16.7188V13.9375L9.5625 11.125V12.625L8.09375 14.0625C7.90625 14.25 7.90625 14.5312 8.09375 14.7187C8.1875 14.8125 8.3125 14.8438 8.4375 14.8438C8.5625 14.8438 8.6875 14.8125 8.78125 14.7187L9.5625 13.9375V15.4062L7.59375 17.375C7.40625 17.5625 7.40625 17.8438 7.59375 18.0313C7.6875 18.125 7.8125 18.1562 7.9375 18.1562C8.0625 18.1562 8.1875 18.125 8.28125 18.0313L9.59375 16.7188V18.875C9.59375 19.125 9.8125 19.3438 10.0625 19.3438C10.3125 19.3438 10.5313 19.125 10.5313 18.875V16.7188L11.8438 18.0313C11.9375 18.125 12.0625 18.1562 12.1875 18.1562C12.3125 18.1562 12.4375 18.125 12.5312 18.0313C12.7187 17.8438 12.7187 17.5625 12.5312 17.375L10.5625 15.4062V13.9375L11.3437 14.7187C11.4375 14.8125 11.5625 14.8438 11.6875 14.8438C11.8125 14.8438 11.9375 14.8125 12.0312 14.7187C12.2188 14.5312 12.2188 14.25 12.0312 14.0625L10.5938 12.625V11.125L13.4063 13.9375V16.7188C13.4063 16.9688 13.625 17.1875 13.875 17.1875C14.125 17.1875 14.3438 16.9688 14.3438 16.7188V14.875L16.0625 16.5937C16.1563 16.6875 16.2812 16.7188 16.4062 16.7188C16.5313 16.7188 16.6562 16.6875 16.75 16.5937C16.9375 16.4062 16.9375 16.125 16.75 15.9375L15.0312 14.2188H16.875C17.125 14.2188 17.3438 14 17.3438 13.75C17.3438 13.5 17.125 13.2812 16.875 13.2812H14.0937L11.2812 10.4688H12.7813L14.2188 11.9062C14.3125 12 14.4375 12.0312 14.5625 12.0312C14.6875 12.0312 14.8125 12 14.9063 11.9062C15.0938 11.7187 15.0938 11.4375 14.9063 11.25L14.125 10.4688H15.5938L17.5625 12.4375C17.6563 12.5312 17.7812 12.5625 17.9062 12.5625C18.0312 12.5625 18.1563 12.5312 18.25 12.4375C18.4375 12.25 18.4375 11.9688 18.25 11.7813L16.9375 10.4688H19.0937C19.3437 10.4688 19.5625 10.25 19.5625 10C19.5625 9.75 19.1563 9.53125 18.9062 9.53125" fill="#75D6FF"/>
</svg>
