<svg width="30" height="30" viewBox="0 0 30 30" fill="none" xmlns="http://www.w3.org/2000/svg">
<path d="M27.9301 16.4484L20.9641 17.2691L16.875 14.9083L20.9641 12.5475L27.9301 13.3682C27.9685 13.3727 28.0067 13.375 28.0444 13.375C28.5278 13.375 28.9454 13.0131 29.0034 12.5212C29.0658 11.9909 28.6866 11.5104 28.1563 11.4479L23.7648 10.9305L26.5006 9.35104C26.963 9.08403 27.1214 8.49276 26.8544 8.03033C26.5875 7.56791 25.9963 7.40942 25.5338 7.67643L22.7979 9.25594L24.5456 5.19405C24.7567 4.70356 24.5301 4.1349 24.0396 3.92385C23.5493 3.71285 22.9805 3.93932 22.7694 4.42981L19.9972 10.873L15.9916 13.1856V8.46387L20.1852 2.84151C20.5045 2.41348 20.4163 1.80774 19.9884 1.48852C19.5603 1.1693 18.9546 1.25742 18.6354 1.68545L15.9916 5.2299V2.39602C15.9916 1.86205 15.5587 1.42922 15.0248 1.42922C14.4909 1.42922 14.058 1.86205 14.058 2.39602V5.22996L11.4141 1.68545C11.0948 1.25742 10.489 1.16936 10.0611 1.48852C9.63308 1.8078 9.54495 2.41354 9.86417 2.84151L14.058 8.46393V13.2819L9.88544 10.8728L7.1132 4.42981C6.90214 3.93938 6.33349 3.71285 5.843 3.92385C5.35251 4.1349 5.12599 4.70362 5.33705 5.19405L7.08478 9.25594L4.63052 7.83897C4.1681 7.57207 3.57683 7.73045 3.30982 8.19287C3.04287 8.65529 3.20125 9.24656 3.66373 9.51358L6.11798 10.9305L1.72638 11.4479C1.19611 11.5104 0.81689 11.9909 0.879351 12.5212C0.9373 13.0131 1.3549 13.375 1.8383 13.375C1.87603 13.375 1.91423 13.3727 1.95261 13.3682L8.9187 12.5475L13.0078 14.9082L8.9187 17.2691L1.95267 16.4484C1.42222 16.386 0.94187 16.7651 0.879409 17.2955C0.816949 17.8257 1.19617 18.3063 1.72644 18.3687L6.11798 18.8861L3.66378 20.303C3.20136 20.57 3.04292 21.1613 3.30988 21.6237C3.48894 21.9339 3.8139 22.1072 4.14806 22.1072C4.31207 22.1072 4.4783 22.0654 4.63052 21.9775L7.08484 20.5605L5.33705 24.6225C5.12599 25.113 5.35257 25.6816 5.843 25.8927C5.96352 25.9448 6.0934 25.9716 6.22468 25.9717C6.59927 25.9717 6.95582 25.7527 7.11326 25.3868L9.88556 18.9437L14.058 16.5347V21.2563L9.86423 26.8788C9.54501 27.3068 9.63314 27.9125 10.0612 28.2318C10.2278 28.3565 10.4304 28.4238 10.6385 28.4237C10.9333 28.4237 11.2244 28.2893 11.4142 28.0348L14.0581 24.4903V27.6494C14.0581 28.1833 14.4909 28.6162 15.0249 28.6162C15.5588 28.6162 15.9917 28.1833 15.9917 27.6494V24.4904L18.6355 28.0348C18.9547 28.4629 19.5606 28.551 19.9885 28.2317C20.4165 27.9125 20.5047 27.3067 20.1853 26.8787L15.9917 21.2563V16.6309L19.9973 18.9435L22.7696 25.3867C22.9271 25.7526 23.2835 25.9716 23.6581 25.9716C23.7894 25.9715 23.9193 25.9446 24.0398 25.8926C24.5303 25.6815 24.7568 25.1129 24.5458 24.6224L22.798 20.5604L25.5339 22.14C25.6805 22.225 25.8469 22.2697 26.0164 22.2697C26.3505 22.2697 26.6755 22.0963 26.8545 21.7862C27.1216 21.3237 26.9631 20.7325 26.5007 20.4655L23.765 18.886L28.1564 18.3686C28.6867 18.3062 29.0659 17.8256 29.0035 17.2954C28.9409 16.7653 28.4608 16.386 27.9301 16.4484V16.4484Z" fill="#59CAFC"/>
</svg>
