<svg width="209" height="28" viewBox="0 0 209 28" fill="none" xmlns="http://www.w3.org/2000/svg">
<g clip-path="url(#clip0_38_112)">
<path d="M29.0332 24.6826H23.6058L27.0005 3.38599H32.4277L29.0332 24.6826Z" fill="#00579F"/>
<path d="M48.7083 3.90656C47.6378 3.47565 45.9398 2.99988 43.8403 2.99988C38.4805 2.99988 34.7062 5.89969 34.683 10.0455C34.6385 13.1043 37.3853 14.8033 39.4397 15.8232C41.5395 16.8654 42.2533 17.5456 42.2533 18.4746C42.232 19.9013 40.5566 20.5589 38.9939 20.5589C36.827 20.5589 35.666 20.2199 33.9015 19.4261L33.1869 19.0858L32.4274 23.8665C33.7003 24.4549 36.0456 24.977 38.4805 24.9999C44.1754 24.9999 47.8829 22.1449 47.9268 17.7269C47.9485 15.3025 46.4981 13.4449 43.3711 11.927C41.4728 10.9525 40.3102 10.2955 40.3102 9.29846C40.3325 8.39208 41.2935 7.46372 43.4364 7.46372C45.2008 7.41825 46.4972 7.84855 47.4793 8.27916L47.9702 8.5053L48.7083 3.90656Z" fill="#00579F"/>
<path d="M55.922 17.1379C56.3689 15.9145 58.0889 11.1793 58.0889 11.1793C58.0663 11.2248 58.5349 9.93329 58.8029 9.14044L59.1822 10.9755C59.1822 10.9755 60.21 16.0732 60.4332 17.1379C59.585 17.1379 56.994 17.1379 55.922 17.1379ZM62.6215 3.38599H58.4233C57.1287 3.38599 56.1452 3.77082 55.5866 5.15297L47.5248 24.6823H53.2197C53.2197 24.6823 54.1572 22.0538 54.3588 21.4877C54.9835 21.4877 60.5235 21.4877 61.3272 21.4877C61.483 22.2353 61.9748 24.6823 61.9748 24.6823H67.0001L62.6215 3.38599Z" fill="#00579F"/>
<path d="M19.0726 3.38599L13.7573 17.9082L13.1764 14.9629C12.1938 11.5645 9.11186 7.87211 5.67261 6.03616L10.5412 24.66H16.2806L24.8117 3.38599H19.0726Z" fill="#00579F"/>
<path d="M8.8216 3.38599H0.0893346L0 3.81629C6.81172 5.58358 11.323 9.84356 13.1765 14.9638L11.2782 5.17616C10.9656 3.81599 10.0052 3.43085 8.8216 3.38599Z" fill="#FAA61A"/>
</g>
<path d="M89.3436 27.9386V26.0804C89.3436 25.3696 88.9232 24.9041 88.2017 24.9041C87.8409 24.9041 87.4485 25.0268 87.1788 25.4309C86.9687 25.0918 86.6674 24.9041 86.2156 24.9041C85.9143 24.9041 85.6131 24.9979 85.3749 25.3371V24.9655H84.7444V27.9386H85.3749V26.2969C85.3749 25.7701 85.6446 25.5211 86.0649 25.5211C86.4853 25.5211 86.6954 25.799 86.6954 26.2969V27.9386H87.3259V26.2969C87.3259 25.7701 87.6272 25.5211 88.016 25.5211C88.4363 25.5211 88.6465 25.799 88.6465 26.2969V27.9386H89.3436ZM98.696 24.9655H97.6732V24.067H97.0427V24.9655H96.4718V25.5536H97.0427V26.9175C97.0427 27.5995 97.3124 28 98.034 28C98.3037 28 98.605 27.9062 98.8151 27.7835L98.633 27.2242C98.4508 27.3469 98.2407 27.3794 98.0901 27.3794C97.7888 27.3794 97.6697 27.1917 97.6697 26.885V25.5536H98.6925V24.9655H98.696ZM104.048 24.9005C103.688 24.9005 103.446 25.0881 103.295 25.3335V24.9619H102.665V27.935H103.295V26.2608C103.295 25.7665 103.505 25.4851 103.898 25.4851C104.017 25.4851 104.167 25.5175 104.29 25.5464L104.472 24.9258C104.346 24.9005 104.167 24.9005 104.048 24.9005ZM95.9604 25.2108C95.6591 24.9943 95.2388 24.9005 94.7869 24.9005C94.0653 24.9005 93.5855 25.2722 93.5855 25.8603C93.5855 26.3546 93.9462 26.6361 94.5767 26.7263L94.878 26.7588C95.2073 26.8201 95.3894 26.9139 95.3894 27.0691C95.3894 27.2856 95.1477 27.4407 94.7274 27.4407C94.307 27.4407 93.9743 27.2856 93.7641 27.1304L93.4629 27.6247C93.7921 27.8737 94.244 27.9964 94.6958 27.9964C95.5365 27.9964 96.0199 27.5923 96.0199 27.0366C96.0199 26.5098 95.6276 26.232 95.0286 26.1381L94.7274 26.1057C94.4577 26.0732 94.2475 26.0119 94.2475 25.8278C94.2475 25.6113 94.4577 25.4887 94.7904 25.4887C95.1512 25.4887 95.512 25.6438 95.6941 25.7376L95.9604 25.2108ZM112.735 24.9005C112.374 24.9005 112.133 25.0881 111.982 25.3335V24.9619H111.352V27.935H111.982V26.2608C111.982 25.7665 112.192 25.4851 112.585 25.4851C112.704 25.4851 112.854 25.5175 112.977 25.5464L113.159 24.933C113.037 24.9005 112.858 24.9005 112.735 24.9005ZM104.679 26.4521C104.679 27.3505 105.281 28 106.213 28C106.633 28 106.935 27.9062 107.236 27.6608L106.935 27.134C106.693 27.3216 106.455 27.4118 106.182 27.4118C105.67 27.4118 105.309 27.0402 105.309 26.4521C105.309 25.8928 105.67 25.5211 106.182 25.4923C106.451 25.4923 106.693 25.5861 106.935 25.7701L107.236 25.2433C106.935 24.9943 106.633 24.9041 106.213 24.9041C105.281 24.9005 104.679 25.5536 104.679 26.4521ZM110.511 26.4521V24.9655H109.88V25.3371C109.67 25.0593 109.369 24.9041 108.977 24.9041C108.164 24.9041 107.534 25.5536 107.534 26.4521C107.534 27.3505 108.164 28 108.977 28C109.397 28 109.698 27.8448 109.88 27.567V27.9386H110.511V26.4521ZM108.196 26.4521C108.196 25.9253 108.525 25.4923 109.068 25.4923C109.579 25.4923 109.94 25.8964 109.94 26.4521C109.94 26.9789 109.579 27.4118 109.068 27.4118C108.528 27.3794 108.196 26.9753 108.196 26.4521ZM100.651 24.9005C99.8099 24.9005 99.2075 25.5211 99.2075 26.4485C99.2075 27.3794 99.8099 27.9964 100.682 27.9964C101.102 27.9964 101.523 27.8737 101.856 27.5923L101.554 27.1268C101.313 27.3144 101.011 27.4371 100.714 27.4371C100.321 27.4371 99.9325 27.2495 99.8415 26.7263H101.975C101.975 26.6325 101.975 26.5711 101.975 26.4773C102.003 25.5211 101.46 24.9005 100.651 24.9005ZM100.651 25.4598C101.043 25.4598 101.313 25.7088 101.372 26.1706H99.8695C99.929 25.7701 100.199 25.4598 100.651 25.4598ZM116.315 26.4521V23.7892H115.685V25.3371C115.474 25.0593 115.173 24.9041 114.781 24.9041C113.968 24.9041 113.338 25.5536 113.338 26.4521C113.338 27.3505 113.968 28 114.781 28C115.201 28 115.502 27.8448 115.685 27.567V27.9386H116.315V26.4521ZM114 26.4521C114 25.9253 114.329 25.4923 114.872 25.4923C115.383 25.4923 115.744 25.8964 115.744 26.4521C115.744 26.9789 115.383 27.4118 114.872 27.4118C114.329 27.3794 114 26.9753 114 26.4521ZM92.8919 26.4521V24.9655H92.2614V25.3371C92.0512 25.0593 91.75 24.9041 91.3577 24.9041C90.545 24.9041 89.9145 25.5536 89.9145 26.4521C89.9145 27.3505 90.545 28 91.3577 28C91.778 28 92.0793 27.8448 92.2614 27.567V27.9386H92.8919V26.4521ZM90.5485 26.4521C90.5485 25.9253 90.8778 25.4923 91.4207 25.4923C91.9321 25.4923 92.2929 25.8964 92.2929 26.4521C92.2929 26.9789 91.9321 27.4118 91.4207 27.4118C90.8778 27.3794 90.5485 26.9753 90.5485 26.4521Z" fill="black"/>
<path d="M105.222 2.38501H95.7502V19.9139H105.222V2.38501Z" fill="#FF5A00"/>
<path d="M96.3807 11.1495C96.3807 7.58814 98.006 4.42732 100.5 2.38505C98.6645 0.898454 96.3492 0 93.8237 0C87.8409 0 83 4.9866 83 11.1495C83 17.3124 87.8409 22.299 93.8237 22.299C96.3492 22.299 98.6645 21.4005 100.5 19.9139C98.0025 17.9005 96.3807 14.7108 96.3807 11.1495Z" fill="#EB001B"/>
<path d="M118 11.1495C118 17.3124 113.159 22.299 107.176 22.299C104.651 22.299 102.335 21.4005 100.5 19.9139C103.026 17.868 104.619 14.7108 104.619 11.1495C104.619 7.58814 102.994 4.42732 100.5 2.38505C102.332 0.898454 104.647 0 107.173 0C113.159 0 118 5.01907 118 11.1495Z" fill="#F79E1B"/>
<path fill-rule="evenodd" clip-rule="evenodd" d="M145.916 5.3863C146.505 5.38286 148.258 5.22854 149 7.67802C149.5 9.32802 150.296 12.0308 151.389 15.7863H151.835C153.007 11.827 153.812 9.12421 154.25 7.67802C155 5.20302 156.875 5.38635 157.625 5.38635L163.411 5.38636V22.9863H157.514V12.6144H157.118L153.831 22.9863H149.393L146.106 12.6067H145.71V22.9863H139.812V5.38636L145.916 5.3863ZM171.88 5.38636V15.766H172.351L176.35 7.2309C177.126 5.53239 178.781 5.38636 178.781 5.38636H184.488V22.9864H178.467V12.6067H177.997L174.076 21.1418C173.3 22.8326 171.567 22.9864 171.567 22.9864H165.86V5.38636H171.88ZM205.299 13.75C204.459 16.077 201.822 17.7436 198.902 17.7436H192.587V22.9864H186.862V13.75H205.299Z" fill="#0F754E"/>
<path fill-rule="evenodd" clip-rule="evenodd" d="M199.178 5.38647H186.562C186.862 9.30483 190.313 12.6592 193.886 12.6592H205.697C206.378 9.40258 204.032 5.38647 199.178 5.38647Z" fill="url(#paint0_linear_38_112)"/>
<defs>
<linearGradient id="paint0_linear_38_112" x1="205.813" y1="9.96133" x2="186.562" y2="9.96133" gradientUnits="userSpaceOnUse">
<stop stop-color="#1F5CD7"/>
<stop offset="1" stop-color="#02AEFF"/>
</linearGradient>
<clipPath id="clip0_38_112">
<rect width="67" height="22" fill="white" transform="translate(0 3)"/>
</clipPath>
</defs>
</svg>
