<svg width="100" height="100" viewBox="0 0 100 100" fill="none" xmlns="http://www.w3.org/2000/svg">
<path d="M36.7188 17.8516V25.7812L32.3829 25.8203L28.0274 25.8789L27.9688 30.2734L27.9102 34.668L25.918 35.6055C23.3789 36.8164 20.6836 38.7109 18.5352 40.8203C16.6211 42.7148 14.3555 45.6836 14.6094 45.9375C14.7071 46.0352 16.0352 46.8359 17.5782 47.7344L20.3711 49.375L21.9532 48.4375C22.8321 47.9297 24.8829 46.7188 26.543 45.7422L29.5508 43.9844L31.1329 44.9219C37.3633 48.5742 38.5938 49.2773 38.7696 49.2773C38.8868 49.2773 40.9375 48.1055 43.3594 46.6797C45.7813 45.2539 47.8516 44.082 47.9493 44.082C48.0664 44.082 50.1758 45.2734 52.6367 46.7383L57.1289 49.375L57.7149 49.0234C58.0469 48.8477 59.375 48.0469 60.7032 47.2852L63.086 45.8789L62.2657 44.6875C61.0352 42.9297 57.7735 39.5898 55.8594 38.1641C54.9414 37.4805 53.125 36.3672 51.8164 35.7031L49.4141 34.4922V30.1367V25.7812H45.1172H40.8203L40.7813 17.9102L40.7227 10.0586L38.7305 10L36.7188 9.94141V17.8516Z" fill="white"/>
<path d="M64.8047 16.3477L64.7461 22.7539L61.4844 22.8125L58.2031 22.8516V26.3282V29.8047L57.1875 30.2344C56.1719 30.6641 52.9297 32.6172 52.9297 32.8125C52.9297 32.8711 53.5938 33.2618 54.3945 33.6914C59.668 36.4453 64.8633 42.0508 67.5586 47.8907C71.0547 55.4493 71.4258 64.2969 68.5547 72.0704C67.5781 74.7266 67.5391 74.4727 68.8672 74.3164C69.4922 74.2383 70.6836 74.043 71.4844 73.8868C79.668 72.2657 86.5235 65.9961 88.9453 57.9493C89.6875 55.4688 89.9024 54.0235 89.9024 51.2696C89.9024 44.961 87.5977 39.3555 83.2031 34.961C81.4453 33.2032 79.1602 31.5625 76.8164 30.3907L75.3906 29.6875V26.2696V22.8516L72.1289 22.8125L68.8477 22.7539L68.7891 16.3477L68.75 9.96097H66.7969H64.8438L64.8047 16.3477Z" fill="white"/>
<path d="M25 50.1172C22.5781 51.543 20.4492 52.6953 20.2735 52.6563C20.0977 52.6172 18.3985 51.6797 16.5235 50.5859C14.6289 49.4922 13.0078 48.6523 12.9102 48.7109C12.5977 48.9063 11.3867 52.207 10.8594 54.2969C9.68752 59.0625 9.68752 63.2422 10.8399 68.0664C11.25 69.8438 12.2656 72.7734 12.6758 73.3984C12.793 73.5938 13.711 73.1445 16.4258 71.5625C18.3985 70.4102 20.0977 69.4727 20.2149 69.4727C20.3125 69.4727 22.4414 70.6836 24.9414 72.1289L29.4727 74.8047L34.0235 72.1289C36.5235 70.6641 38.6719 69.4727 38.7695 69.4727C38.8867 69.4727 41.0156 70.6641 43.5156 72.1289L48.0469 74.7852L52.5977 72.1289C55.0781 70.6641 57.2266 69.4727 57.3242 69.4727C57.4414 69.4727 59.1406 70.4102 61.0938 71.5625C63.0664 72.7344 64.707 73.6328 64.7266 73.5938C64.7656 73.5742 65.1172 72.7344 65.4883 71.7578C68.2422 64.8438 68.086 56.4844 65.0977 49.7461C64.8242 49.1406 64.5313 48.6328 64.4531 48.6328C64.375 48.6328 62.793 49.5117 60.957 50.5859C59.1211 51.6797 57.4805 52.5977 57.3242 52.6758C57.1485 52.7344 55.1563 51.6797 52.5977 50.1758C50.1563 48.75 48.0664 47.5977 47.9297 47.5977C47.8125 47.5977 45.7227 48.75 43.2813 50.1758C40.625 51.7383 38.7305 52.7148 38.5352 52.6563C38.3789 52.5977 36.3477 51.4258 34.043 50.0781C31.7383 48.7305 29.7461 47.5977 29.6289 47.5586C29.4922 47.5195 27.4219 48.6719 25 50.1172ZM16.4063 61.0352V62.5H15.1367H13.8672V61.0352V59.5703H15.1367H16.4063V61.0352ZM26.3672 61.0352V62.5H23.8281H21.2891V61.0352V59.5703H23.8281H26.3672V61.0352ZM36.3281 61.0352V62.5H33.7891H31.25V61.0352V59.5703H33.7891H36.3281V61.0352ZM46.25 61.0742L46.3086 62.5H43.75H41.211V61.0352V59.5508L43.711 59.6094L46.1914 59.668L46.25 61.0742ZM56.0547 61.0352V62.5H53.6133H51.1719V61.0352V59.5703H53.6133H56.0547V61.0352ZM63.6719 61.0352V62.5H62.4024H61.1328V61.0352V59.5703H62.4024H63.6719V61.0352Z" fill="#FFE800"/>
<path d="M17.2852 74.5118C15.7813 75.4102 14.4727 76.1914 14.3555 76.2305C14.2579 76.2696 14.5899 76.8946 15.0977 77.5977C19.6094 83.9063 25.6446 87.8711 33.2813 89.4922C35.8594 90.0391 40.9766 90.0977 43.6915 89.5899C49.5118 88.5157 54.9415 85.6641 59.0821 81.5039C60.9376 79.6094 63.1641 76.7188 63.0469 76.3477C63.0079 76.2305 61.6993 75.3907 60.1563 74.4727C58.086 73.2618 57.2462 72.8711 57.0313 73.0078C54.961 74.2774 48.2227 78.125 48.0469 78.125C47.9102 78.125 45.9571 77.0313 43.6719 75.7227C41.4063 74.3946 39.3555 73.2032 39.1212 73.086C38.7501 72.8907 38.1641 73.1641 34.1993 75.4883C31.7188 76.9336 29.5899 78.125 29.4727 78.125C29.336 78.125 27.2852 76.9727 24.8829 75.586C22.5001 74.1797 20.4102 73.0078 20.2735 72.9688C20.1368 72.9102 18.7891 73.6133 17.2852 74.5118Z" fill="white"/>
</svg>
