<svg width="100" height="100" viewBox="0 0 100 100" fill="none" xmlns="http://www.w3.org/2000/svg">
<g clip-path="url(#clip0_17_177)">
<path d="M17.2657 15.0195C15.3321 15.4883 13.379 17.0898 12.5391 18.9062C12.1095 19.8438 12.0118 20.3516 11.9532 22.1094L11.8751 24.2188H6.75789C2.30477 24.2188 1.58211 24.2578 0.976642 24.5703C-0.136639 25.1172 -0.312421 26.4648 0.625079 27.3438C1.03524 27.7344 1.26961 27.7344 11.8165 27.7344C19.1993 27.7344 22.793 27.793 23.2227 27.9492C23.8477 28.1641 24.4141 28.9648 24.4141 29.668C24.4141 29.8828 24.1993 30.3125 23.9063 30.6445L23.418 31.2305L18.1641 31.2891C12.9884 31.3477 12.8907 31.3477 12.461 31.7969C12.0899 32.1484 11.9923 32.5195 11.9141 33.75L11.8165 35.2539L9.60945 35.3516C7.5782 35.4492 7.36336 35.4883 7.0118 35.918C6.60164 36.4258 6.52352 37.3242 6.85555 37.9297C7.3243 38.8086 7.91024 38.8672 15.8985 38.8672H23.3985L23.9063 39.4727C24.4923 40.1562 24.5313 40.6055 24.1212 41.3867C23.672 42.2852 23.0274 42.3828 17.7345 42.3828H12.8712L12.4024 42.8711C11.9337 43.3203 11.9141 43.4375 11.9141 45.9961V48.6719L12.4805 49.2383L13.047 49.8047H18.4571C24.961 49.8047 25.1954 49.8633 25.1954 51.6602C25.1954 52.1484 25.0391 52.4414 24.5899 52.8125L23.9845 53.3203H18.6329C11.9337 53.3203 11.9337 53.3203 11.9141 55.8008V57.207L6.42586 57.2656L0.937579 57.3242L0.468829 57.8711C-0.175702 58.6328 -0.136639 59.4531 0.566485 60.1758L1.13289 60.7422H6.52352H11.9141V68.0469V75.3516L12.5196 75.8594C13.0079 76.2695 13.3204 76.3672 14.1798 76.3672C16.1329 76.3672 16.797 75.625 16.797 73.457C16.797 70.2148 19.1798 65.7812 22.1095 63.5742C26.4063 60.332 31.8751 59.668 36.504 61.8359C41.2891 64.082 44.1407 68.0469 44.7266 73.2812C44.9805 75.6055 45.0391 75.7227 45.7032 76.0742C46.1915 76.3281 47.8516 76.3672 56.7384 76.3672H67.2266L67.793 75.8008L68.3595 75.2148L68.3204 47.7148L68.2618 20.2148L67.7149 19.043C66.797 17.0898 65.254 15.7422 63.2813 15.1562C62.3438 14.8828 59.7657 14.8438 40.0587 14.8633C27.8516 14.8828 17.5977 14.9414 17.2657 15.0195ZM34.4532 35.957C35.0391 36.6406 35.0782 37.0898 34.668 37.8906C34.2774 38.6523 33.2813 38.9258 31.3673 38.8281C30.0587 38.7695 29.8243 38.6914 29.3555 38.2422C28.6329 37.5195 28.6524 36.4258 29.3946 35.8008C29.8634 35.3906 30.0977 35.3516 31.9337 35.3516C33.9454 35.3516 33.9454 35.3516 34.4532 35.957ZM22.4805 57.793C23.2423 58.5742 23.2423 59.3945 22.4805 60.1758L21.9141 60.7422H18.7891C15.9766 60.7422 15.6251 60.7031 15.1759 60.3516C14.5704 59.8633 14.3555 59.082 14.668 58.3594C15.0587 57.3828 15.6055 57.2461 18.9063 57.2266H21.9141L22.4805 57.793Z" fill="white"/>
<path d="M72.4414 40.0195L71.875 40.5859V51.7383V62.8711L72.3438 63.418C73.0273 64.2188 74.0234 64.1602 75.3125 63.2227C82.9688 57.6953 93.7695 61.2109 96.8945 70.2539C97.1094 70.8789 97.3828 72.2656 97.5 73.3203C97.7344 75.4102 98.0273 75.9766 98.9062 75.9766C99.9805 75.9766 100 75.8203 100 67.1484C100 62.3633 99.9219 59.0039 99.8047 58.6914C99.4141 57.6562 99.0234 57.6172 89.7656 57.6172C81.6797 57.6172 81.2109 57.5977 80.1953 57.2266C78.1641 56.4648 76.6406 54.8438 75.9766 52.7539C75.625 51.6406 75.5859 50.9766 75.5859 46.0547V40.5859L75.0195 40.0195C74.5898 39.6094 74.2578 39.4531 73.7305 39.4531C73.2031 39.4531 72.8711 39.6094 72.4414 40.0195Z" fill="white"/>
<path d="M79.6875 40L79.1016 40.5859V45.9375C79.1016 50.7031 79.1406 51.3477 79.4727 52.0508C79.8828 52.9492 80.5273 53.5938 81.3086 53.8867C81.6602 54.0234 84.5703 54.1016 89.5508 54.1016H97.2266L97.7344 53.4961C98.0078 53.1641 98.2422 52.6953 98.2422 52.4219C98.2422 51.9727 96.0938 48.6523 92.7344 43.9062C91.2695 41.8164 89.9805 40.7422 88.1055 40C87.168 39.6289 86.543 39.5703 83.6523 39.4922L80.2734 39.4141L79.6875 40Z" fill="white"/>
<path d="M2.87118 46.6797C2.26571 47.168 2.05087 47.9492 2.36337 48.6719C2.71493 49.5312 3.45712 49.8047 5.37118 49.8047C7.6954 49.8047 8.379 49.3945 8.39853 47.9883C8.39853 47.4609 8.26181 47.1094 7.91025 46.7773C7.48056 46.3281 7.30478 46.2891 5.41025 46.2891C3.67196 46.2891 3.30087 46.3477 2.87118 46.6797Z" fill="white"/>
<path d="M28.6133 64.2969C26.8164 64.6289 24.8437 65.7422 23.3398 67.2656C21.1914 69.4336 20.3125 71.582 20.3125 74.6094C20.3125 77.6562 21.2109 79.8242 23.3203 81.9531C26.6797 85.3125 31.3867 86.0937 35.5859 83.9648C36.9727 83.2617 38.7891 81.6211 39.668 80.2539C41.7969 76.9336 41.7969 72.2852 39.6484 68.9453C38.7305 67.5195 36.8945 65.918 35.293 65.1562C33.1445 64.1211 30.957 63.8477 28.6133 64.2969Z" fill="#F88506"/>
<path d="M81.3477 64.2968C79.6094 64.6093 77.5586 65.7616 76.1523 67.1679C74.0625 69.2577 73.0469 71.6796 73.0469 74.6093C73.0469 77.539 74.0625 79.9608 76.1523 82.0507C78.75 84.6483 82.3633 85.703 85.8984 84.8632C88.5156 84.2382 90.8789 82.539 92.4219 80.1952C94.5508 76.9335 94.5508 72.3046 92.4219 69.0233C90 65.3124 85.7031 63.4569 81.3477 64.2968Z" fill="#F88506"/>
</g>
<defs>
<clipPath id="clip0_17_177">
<rect width="100" height="100" fill="white"/>
</clipPath>
</defs>
</svg>
