<?xml version="1.0"?>
<svg width="32" height="32" xmlns="http://www.w3.org/2000/svg" xmlns:svg="http://www.w3.org/2000/svg">
 <g class="layer">
  <title>Layer 1</title>
  <g clip-path="url(#clip0_42_2)" clip-rule="evenodd" fill-rule="evenodd" id="svg_2">
   <path d="m14.801494,0.92578c0.221897,0 0.443794,0 0.66569,0c-0.719607,1.05771 -1.422322,2.12801 -2.108044,3.210908c-0.673265,1.082325 -1.265006,2.192295 -1.775224,3.329825c-0.421619,0.86185 -0.594183,1.753743 -0.517792,2.67576c0.0737,0.336488 0.307855,0.564459 0.702715,0.683792c3.208061,0.211827 6.413281,0.182064 9.61576,-0.089169c0.584865,0.563978 1.15199,1.138731 1.701275,1.724381c-0.034782,0.070903 -0.108731,0.1106 -0.221897,0.118892c-3.38511,0.426819 -6.78766,0.585329 -10.207551,0.47569c-1.173915,2.135136 -2.357398,4.265826 -3.550448,6.392109c0.310695,0.081278 0.631158,0.111001 0.961586,0.089169c0.429093,-1.163527 0.909862,-2.313154 1.442354,-3.448761c0.381256,1.205348 0.738742,2.414381 1.072559,3.62714c3.864582,0.1378 7.710876,-0.000921 11.538932,-0.416204c0.588353,0.631636 1.204711,1.246047 1.849223,1.843273c-2.095088,0.354274 -4.215491,0.582204 -6.361257,0.683832c-3.033702,0.125822 -6.066358,0.115888 -9.098018,-0.029763c-0.098565,0.019829 -0.19728,0.039698 -0.295846,0.059486c-1.029705,0.921416 -1.855701,1.952111 -2.477939,3.091964c-0.466865,0.789585 -0.442149,1.562586 0.073999,2.319003c0.42137,0.3721 0.926804,0.629753 1.516303,0.773001c-1.586664,-0.085564 -3.164608,-0.23422 -4.733931,-0.445967c-1.245273,-0.051715 -2.194501,-0.497682 -2.847739,-1.33786c-0.382591,-0.805248 -0.210002,-1.518762 0.517748,-2.140624c1.673071,-1.570197 3.337372,-3.145922 4.992852,-4.727175c-0.715571,-0.119253 -1.430644,-0.258054 -2.145069,-0.416204c-1.601464,-0.7174 -1.835719,-1.658845 -0.702715,-2.824416c1.889387,-1.776336 3.750918,-3.570137 5.584594,-5.381243c-0.58621,-0.101307 -1.177952,-0.180582 -1.775224,-0.237865c-1.309106,-0.177818 -1.863873,-0.782334 -1.664301,-1.81355c2.370404,-2.321607 4.712703,-4.660426 7.026948,-7.016427c0.337355,-0.341944 0.744174,-0.599609 1.220457,-0.772997z" fill="#3DAD52" id="svg_3"/>
   <path d="m15.467234,0.92578c0.369845,0 0.739689,0 1.109534,0c0.378565,0.114722 0.711385,0.293105 0.99856,0.535152c2.363079,2.430945 4.779327,4.829235 7.248795,7.194825c0.304865,0.847789 -0.052621,1.432477 -1.072509,1.754104c-0.780501,0.150498 -1.569522,0.259456 -2.366966,0.327034c-3.202529,0.271233 -6.407749,0.300996 -9.61581,0.089169c-0.39486,-0.119333 -0.629015,-0.347304 -0.702665,-0.683792c-0.076441,-0.922017 0.096124,-1.81391 0.517743,-2.67576c0.510218,-1.13753 1.101959,-2.247499 1.775224,-3.329825c0.685772,-1.082898 1.388437,-2.153198 2.108094,-3.210908z" fill="#4CC067" id="svg_4" opacity="0.993"/>
   <path d="m23.085873,12.461276c1.441058,1.363377 2.883413,2.73096 4.327112,4.102789c0.5598,0.905433 0.325545,1.648711 -0.702665,2.229793c-0.814834,0.320745 -1.677755,0.489189 -2.588862,0.505453c-3.828056,0.415282 -7.6744,0.554003 -11.538982,0.416204c-0.333817,-1.212759 -0.691303,-2.421792 -1.072509,-3.62714c-0.532493,1.135607 -1.01331,2.285234 -1.442404,3.448761c-0.330379,0.021832 -0.650891,-0.007891 -0.961586,-0.089169c1.19305,-2.126283 2.376533,-4.256973 3.550448,-6.392109c3.419941,0.109639 6.822442,-0.048871 10.207551,-0.47569c0.113166,-0.008332 0.187165,-0.04799 0.221897,-0.118892z" fill="#4CC067" id="svg_5" opacity="0.995"/>
   <path d="m25.970631,21.142584c1.155577,1.117541 2.326702,2.22747 3.513474,3.329829c0.711286,1.124431 0.403032,2.026258 -0.924611,2.705483c-0.719607,0.265986 -1.471655,0.43451 -2.255992,0.505453c-0.98984,-0.973972 -1.951426,-1.96505 -2.884758,-2.973071c-0.036974,1.0899 -0.049333,2.180081 -0.036974,3.270342c-1.427156,0.112163 -2.857152,0.191438 -4.290138,0.237865c-2.268948,0.071343 -4.537299,0.071343 -6.805001,0c-1.001401,-0.014982 -1.987603,-0.074428 -2.958707,-0.178379c-0.589549,-0.143248 -1.094983,-0.400901 -1.516353,-0.773001c-0.516148,-0.756417 -0.540864,-1.529418 -0.073949,-2.319003c0.622188,-1.139853 1.448184,-2.170548 2.477889,-3.091964c0.098615,-0.019789 0.19728,-0.039658 0.295896,-0.059486c3.031609,0.145651 6.064315,0.155586 9.098018,0.029763c2.145717,-0.101627 4.266169,-0.329558 6.361207,-0.683832z" fill="#4DC067" id="svg_6" opacity="0.992"/>
   <path d="m12.28663,28.218485c2.267702,0.071343 4.536053,0.071343 6.805001,0c0.111621,0.349747 0.18557,0.706505 0.221897,1.070312c-1.466472,0.059286 -2.945851,0.079075 -4.438035,0.059446c0,0.654068 0,1.308137 0,1.962205c-1.055467,-0.084603 -2.066386,-0.302639 -3.032706,-0.654068c-0.024616,-0.039658 -0.049333,-0.079235 -0.073949,-0.118892c0.180687,-0.77252 0.353251,-1.545521 0.517792,-2.319003z" fill="#7F4A26" id="svg_7" opacity="0.98"/>
   <path d="m19.313528,29.288797c0.113166,0.38588 0.211831,0.782254 0.295896,1.189204c-0.024666,0.059486 -0.049333,0.118932 -0.073999,0.178379c-1.482867,0.532372 -3.036194,0.750368 -4.659932,0.654109c0,-0.654109 0,-1.308177 0,-1.962245c1.492185,0.019628 2.971563,-0.00016 4.438035,-0.059446z" fill="#925C34" id="svg_8"/>
  </g>
 </g>
</svg>