<svg width="100" height="100" viewBox="0 0 100 100" fill="none" xmlns="http://www.w3.org/2000/svg">
<path d="M65.625 7.1875C64.6093 8.20313 64.7656 8.75 66.6211 10.6641C68.2812 12.3633 68.8672 12.6563 69.8047 12.3047C70.3906 12.0898 70.8789 11.1328 70.7617 10.4688C70.7031 10.2148 69.9414 9.29688 69.082 8.4375C67.1289 6.50391 66.5429 6.28907 65.625 7.1875Z" fill="white"/>
<path d="M74.2773 8.4571C72.207 10.5274 72.0508 10.9571 73.0469 11.9532C73.5742 12.461 73.75 12.5391 74.375 12.4415C74.9609 12.3438 75.4297 11.9923 76.7187 10.6837C78.1055 9.25788 78.3203 8.94538 78.3203 8.37897C78.3008 7.63678 78.0469 7.2071 77.4023 6.87507C76.5234 6.40632 76.1523 6.5821 74.2773 8.4571Z" fill="white"/>
<path d="M68.8281 14.2187C68.5937 14.2578 67.6562 15.0586 66.7187 15.9961C65.332 17.4414 65.0391 17.832 65.0391 18.3398C65.0391 19.2187 65.7812 19.9219 66.7187 19.9219C67.3437 19.9219 67.6172 19.7461 68.9453 18.4375C69.7851 17.6172 70.5859 16.6992 70.7226 16.3672C71.1914 15.2344 70.0976 14.0039 68.8281 14.2187Z" fill="white"/>
<path d="M73.4766 14.375C72.7149 14.6875 72.4024 15.293 72.5391 16.0938C72.6368 16.5625 73.1251 17.1875 74.297 18.3203C75.9571 19.9414 76.4454 20.1758 77.4415 19.8047C77.8126 19.6484 78.3204 18.7305 78.3204 18.1445C78.3204 17.6172 75.1563 14.3359 74.5118 14.2188C74.2579 14.1602 73.7891 14.2383 73.4766 14.375Z" fill="white"/>
<path d="M92.4608 15.254C91.4257 15.547 89.9804 16.6407 89.3163 17.6368C87.7733 19.9415 88.1444 23.1447 90.1757 25.0197C91.4061 26.1525 92.5194 26.6017 94.16 26.6017C96.4647 26.6017 98.4179 25.3712 99.453 23.2618C100.117 21.9142 100.078 19.6095 99.3749 18.2423C98.0858 15.7814 95.0975 14.4923 92.4608 15.254ZM95.5272 18.8087C96.3085 19.3361 96.8163 20.547 96.6015 21.3868C96.5233 21.6798 96.1718 22.2267 95.8007 22.5978C95.2343 23.1642 95.0194 23.2423 94.1796 23.2423C92.9882 23.2423 92.1093 22.6173 91.8163 21.5236C91.1718 19.2579 93.5741 17.5001 95.5272 18.8087Z" fill="white"/>
<path d="M7.67591 16.7969C6.77747 17.168 6.60169 17.7735 6.67982 20.2149C6.73841 22.3438 6.77747 22.5196 7.20716 22.8711C7.91028 23.4375 9.0431 23.3594 9.55091 22.7344C9.90247 22.2852 9.96106 21.9336 9.96106 20C9.96106 17.9883 9.922 17.7539 9.53138 17.3047C9.02357 16.7383 8.30091 16.543 7.67591 16.7969Z" fill="white"/>
<path d="M48.6327 21.2695C43.6717 25.0391 39.9217 30.9961 38.7303 37.0508C38.3397 39.1211 38.2811 44.0039 38.6522 45.8789C39.0428 47.8906 39.8045 50.3516 40.5467 51.9336L41.2303 53.418L41.8553 52.1875C43.3592 49.2383 45.5077 47.0898 48.3592 45.6836L49.9217 44.9023L50.8006 45.2344C53.7694 46.3867 56.5819 49.082 58.203 52.2852L58.7694 53.418L59.453 51.9336C62.0311 46.3867 62.3631 39.3945 60.3124 33.6328C58.9256 29.668 56.7772 26.3281 53.7499 23.3984C52.1874 21.8945 50.2538 20.3125 49.9608 20.3125C49.9217 20.3125 49.3358 20.7422 48.6327 21.2695Z" fill="white"/>
<path d="M0.976562 23.5743C-0.3125 24.2384 -0.3125 25.7618 0.976562 26.4259C1.54297 26.7188 2.03125 26.7774 3.69141 26.7188C5.625 26.6602 5.72266 26.6212 6.17187 26.1134C6.77734 25.4102 6.77734 24.5899 6.17187 23.8868C5.72266 23.379 5.625 23.3399 3.69141 23.2813C2.03125 23.2227 1.54297 23.2813 0.976562 23.5743Z" fill="white"/>
<path d="M11.0157 23.5157C9.60947 24.1407 9.74619 26.0743 11.2306 26.5626C11.6798 26.7188 12.6563 26.7774 13.7892 26.7188C15.3712 26.6602 15.6837 26.5821 16.1134 26.1719C16.797 25.5274 16.797 24.4532 16.0938 23.8086C15.6446 23.3985 15.4103 23.3399 13.6134 23.3008C12.2267 23.2618 11.4454 23.3204 11.0157 23.5157Z" fill="white"/>
<path d="M7.20703 27.129C6.75781 27.4805 6.73828 27.6172 6.73828 29.961C6.73828 32.2266 6.77734 32.4415 7.16797 32.8516C7.8125 33.4961 8.90625 33.4375 9.49219 32.7344C9.92188 32.2461 9.96094 32.0313 9.96094 30.0001C9.96094 28.0665 9.90234 27.7149 9.55078 27.2657C9.04297 26.6407 7.91016 26.5626 7.20703 27.129Z" fill="white"/>
<path d="M21.289 33.7305C19.453 33.8282 17.6171 34.1993 17.4999 34.4727C17.4608 34.6094 17.3046 35.7813 17.1679 37.0899C16.7577 40.9962 17.4022 45.5079 18.9061 49.2383C19.5702 50.918 19.2382 50.8204 22.9491 50.293C26.914 49.7266 31.914 50.1563 35.4296 51.3673C36.0741 51.5821 36.621 51.7188 36.6601 51.6798C36.7186 51.6407 36.5233 50.879 36.2499 50.0001C35.1952 46.6993 34.8241 42.4415 35.2147 38.3594L35.3515 36.7774L33.9452 36.1329C29.9999 34.3751 25.3515 33.4962 21.289 33.7305Z" fill="white"/>
<path d="M75.6836 33.711C72.0704 34.0235 69.375 34.6876 66.4258 35.9766L64.6094 36.7774L64.7266 37.6758C65.293 42.1094 64.9219 46.4454 63.6524 50.3516C63.418 51.0352 63.2813 51.6212 63.3203 51.6798C63.3789 51.7188 63.9258 51.5821 64.5703 51.3673C68.086 50.1563 73.086 49.7266 77.0508 50.293C80.7618 50.8204 80.4297 50.918 81.0938 49.2383C82.5586 45.5665 83.2227 41.0352 82.8321 37.2852C82.5196 34.0626 82.5977 34.2384 81.0938 34.004C79.5508 33.7696 76.7774 33.6134 75.6836 33.711Z" fill="white"/>
<path d="M48.9257 49.1016C45.8398 51.1328 43.8671 54.4531 43.4765 58.2227C43.2421 60.3516 43.4179 60.8008 44.6874 61.582C47.3632 63.2422 49.8241 66.2891 50.7812 69.1211C51.0546 69.8828 51.3476 70.5078 51.4452 70.5078C51.5429 70.5078 52.246 69.8633 53.0077 69.082C55.5273 66.5234 56.4452 64.0039 56.4843 59.668C56.5038 57.3828 56.4452 56.9727 55.957 55.4883C55.039 52.7734 53.3593 50.5859 51.0937 49.1211C50.5077 48.75 49.9999 48.4375 49.9609 48.457C49.9218 48.457 49.4726 48.75 48.9257 49.1016Z" fill="#007E62"/>
<path d="M22.6562 53.6329C18.0664 54.3751 13.1055 56.7774 9.66797 59.922C8.41797 61.0743 6.5625 63.1446 5.82031 64.2188L5.25391 65.0391L6.32812 66.4649C8.63281 69.5509 12.5977 72.7149 16.0937 74.3165C17.8906 75.1368 20.2344 75.8594 22.4609 76.2696C24.3555 76.6212 29.4336 76.6993 29.7656 76.3673C29.9023 76.2305 29.8828 76.1719 29.7266 76.1719C29.3359 76.1719 26.7578 73.5938 25.9375 72.3829C24.2969 69.9805 23.2812 66.8555 23.418 64.6095C23.4375 64.1407 24.6484 62.8516 26.0156 61.7774C27.4414 60.7032 29.9805 59.4923 31.7578 59.0626C33.5156 58.6329 36.7969 58.6329 38.5351 59.0626C39.2773 59.2384 39.9609 59.3751 40.0586 59.3751C40.1758 59.3751 40.2344 58.9063 40.1953 58.2618L40.1367 57.129L37.9883 56.0548C34.3359 54.1993 31.582 53.5157 27.3437 53.3985C25.4102 53.3595 23.9258 53.4181 22.6562 53.6329Z" fill="white"/>
<path d="M70.0195 53.5351C67.0898 53.9062 63.8086 55 61.1914 56.4453L59.7656 57.246V58.3007C59.7656 58.8867 59.8438 59.375 59.9414 59.375C60.0586 59.375 60.7227 59.2382 61.4648 59.0625C63.3594 58.5937 66.6602 58.6328 68.5742 59.1406C70.9961 59.7851 73.3594 61.0937 75.2734 62.8906C76.543 64.0625 76.7383 64.5507 76.5234 66.0742C76.0352 69.6679 73.9648 73.3007 71.0742 75.5859C70.5469 75.996 70.1953 76.3867 70.3125 76.4648C70.7031 76.7187 75.7813 76.582 77.5391 76.2695C83.8867 75.1757 89.8633 71.5429 93.5938 66.5429L94.7266 65L94.1602 64.1796C92.8125 62.2265 90.1563 59.6093 87.8516 57.9687C82.832 54.3554 76.3086 52.7539 70.0195 53.5351Z" fill="white"/>
<path d="M33.4766 62.0898C31.4258 62.4219 28.9258 63.5547 27.5 64.8437L26.6797 65.5664L26.9336 66.6797C27.7734 70.4883 31.1523 73.9453 35.293 75.293L36.3281 75.625L37.2461 74.8047C39.5313 72.8125 42.3828 71.6016 45.7617 71.2305C47.0898 71.0937 47.8516 70.918 47.8516 70.7812C47.8516 70.2539 46.2305 67.4023 45.4102 66.4648C42.793 63.4961 37.3242 61.4844 33.4766 62.0898Z" fill="#007E62"/>
<path d="M63.0469 62.1094C62.5196 62.1876 61.5625 62.461 60.8789 62.6758L59.6289 63.1055L59.375 64.2188C58.6133 67.6563 56.3281 71.0938 53.418 73.1836C52.8321 73.5938 52.8321 73.6133 53.2227 73.9258C54.0235 74.5704 56.4063 75.6055 57.8125 75.8985C60.3906 76.4454 63.8477 75.8985 66.7969 74.4727C69.7266 73.0665 72.3242 69.8047 73.0469 66.6407C73.3399 65.3907 73.2227 65.2149 71.2696 63.9454C68.9258 62.4219 65.5274 61.6602 63.0469 62.1094Z" fill="#007E62"/>
<path d="M44.6289 74.7266C41.7578 75.3516 39.4922 76.8555 37.2852 79.6289C35.2148 82.2266 34.375 84.5703 34.375 87.6953C34.375 89.6289 34.5312 90.4492 35.1953 92.1289C35.5664 93.1055 35.625 93.1446 36.4648 93.2813C37.5195 93.4375 39.375 93.2617 40.8203 92.8516C43.3984 92.1094 46.2891 89.961 47.5391 87.8516L48.0469 86.9727L47.6562 86.0742C46.2109 82.8125 46.0938 77.9883 47.3633 74.7461C47.4805 74.4727 47.3828 74.4141 46.7578 74.4336C46.3281 74.4336 45.3906 74.5703 44.6289 74.7266Z" fill="#007E62"/>
<path d="M50.2149 76.7188C49.8438 77.832 49.7266 81.0547 50 82.461C50.4688 84.8633 52.3438 88.1445 54.3164 90.0586C56.6602 92.3242 60.6641 93.711 63.5547 93.2813C64.375 93.1446 64.4336 93.1055 64.8047 92.1289C65.4688 90.4492 65.625 89.6289 65.625 87.6953C65.625 84.8438 64.8242 82.3438 63.2227 80.2539L62.5586 79.4141L60.0391 79.375C58.1055 79.3555 57.1875 79.2578 56.0938 78.9258C54.4141 78.4375 52.6172 77.5586 51.3477 76.6406L50.4492 75.9961L50.2149 76.7188Z" fill="#007E62"/>
</svg>
