<svg width="17" height="17" viewBox="0 0 17 17" fill="none" xmlns="http://www.w3.org/2000/svg">
<g clip-path="url(#clip0_416_6)">
<path d="M16.4624 10.1708L15.4315 9.14039H15.7635C16.3856 9.14039 17.0542 8.94861 17.0542 8.52892V8.5268V8.52467C17.0542 8.10499 16.3848 7.9132 15.7625 7.9132H15.4352L16.3604 6.9883C16.8005 6.54869 17.1384 5.94014 16.842 5.64291C16.791 5.59244 16.6996 5.53241 16.5503 5.53241C16.2656 5.53241 15.8621 5.75978 15.4968 6.12449L13.9379 7.6837C13.8627 7.75834 13.7955 7.83617 13.7326 7.9132H9.97396L12.6408 5.24633C12.6451 5.24314 12.6496 5.23783 12.6533 5.23385L12.6613 5.22641C12.8071 5.24893 12.9544 5.26012 13.102 5.25988H15.3061C15.9287 5.25988 16.5984 5.06863 16.5984 4.64894C16.5984 4.22978 15.929 4.038 15.3072 4.038H13.8492L14.0834 3.80425C14.3071 3.5806 14.4859 3.3341 14.5863 3.11044C14.6572 2.95186 14.6782 2.82835 14.6734 2.73006V2.72794C14.6734 2.67189 14.6606 2.62381 14.6458 2.58503C14.6442 2.58131 14.6423 2.57919 14.6413 2.57653C14.6236 2.53285 14.5978 2.49292 14.5653 2.45886H14.564C14.514 2.40786 14.4221 2.34756 14.2728 2.34756C13.9876 2.34756 13.5835 2.57494 13.2183 2.94071L12.9867 3.17233V1.86307C12.9867 1.24124 12.796 0.571862 12.3757 0.571862C11.9561 0.571862 11.7653 1.24124 11.7653 1.86307L11.7659 4.06828C11.7659 4.17374 11.773 4.27574 11.7831 4.37614L9.14627 7.01167V3.33277V3.30116C9.25943 3.21908 9.37126 3.12664 9.48149 3.01694L11.0407 1.45825C11.4809 1.01758 11.8187 0.4093 11.522 0.113128C11.4721 0.0623935 11.381 0.00183105 11.2317 0.00183105C10.9467 0.00183105 10.5424 0.229206 10.1774 0.59444L9.14654 1.62507V1.29357C9.14654 0.671206 8.95609 0.00183105 8.5364 0.00183105L8.5348 0.0023623L8.53162 0.00183105C8.11246 0.00183105 7.92068 0.672003 7.92068 1.2941V1.62135L6.99524 0.696175C6.63054 0.331206 6.22652 0.104097 5.94204 0.104097C5.79276 0.104097 5.70138 0.164659 5.65038 0.214862C5.56937 0.295878 5.45966 0.487393 5.6294 0.86644C5.73033 1.0901 5.90777 1.3366 6.13223 1.55972L7.69144 3.11894C7.76662 3.19411 7.84444 3.25972 7.92094 3.32294V7.00317L5.29923 4.38119C5.29498 4.37641 5.28966 4.37163 5.28541 4.36764L5.27744 4.36021C5.30002 4.21677 5.31171 4.06749 5.31171 3.91953V1.71538C5.31171 1.09328 5.12099 0.423643 4.70077 0.423643C4.28162 0.423643 4.09037 1.09249 4.09037 1.71485V3.1726L3.85608 2.93831C3.49058 2.57281 3.0871 2.34624 2.80341 2.34624C2.65307 2.34624 2.56169 2.40627 2.51123 2.457H2.51043C2.50963 2.45886 2.51043 2.45913 2.50671 2.46019C2.50565 2.46178 2.50565 2.46311 2.50485 2.46444C2.47569 2.49492 2.45221 2.53036 2.43552 2.5691C2.42702 2.58796 2.42224 2.60735 2.41773 2.62674C2.41268 2.64108 2.41055 2.65675 2.40763 2.67375C2.3561 2.99516 2.63713 3.45336 2.98908 3.80585L3.22124 4.03747H1.91277C1.29015 4.03747 0.621038 4.22872 0.621038 4.64841C0.621038 5.0681 1.29041 5.25828 1.91277 5.25828H4.11905C4.22424 5.25828 4.32491 5.25191 4.42426 5.24102L7.0991 7.91586H3.3073C3.21933 7.79748 3.12311 7.68547 3.01937 7.58064L1.46015 6.02195C1.09544 5.65672 0.691694 5.42988 0.406413 5.42988C0.257663 5.42988 0.165756 5.49044 0.115553 5.54064C-0.181415 5.83681 0.15646 6.44536 0.596866 6.88497L1.62749 7.91559H1.29599C0.673631 7.91559 0.00425641 8.10738 0.00425641 8.52706L0.00531891 8.52919L0.00425641 8.53131C0.00425641 8.951 0.674428 9.14278 1.29652 9.14278H1.6243L0.699131 10.068C0.258991 10.5078 -0.0788842 11.1161 0.217553 11.4133C0.268022 11.4635 0.359397 11.5236 0.50921 11.5236C0.79396 11.5236 1.19798 11.2962 1.56241 10.9315L3.12163 9.37228C3.19627 9.29791 3.26401 9.22008 3.32696 9.14278H7.01729L4.43063 11.7289C4.42532 11.7337 4.4208 11.739 4.41496 11.7443L4.40965 11.7504C4.26399 11.7282 4.11685 11.717 3.96951 11.717H1.76402C1.14219 11.717 0.471756 11.9077 0.471756 12.3274C0.471756 12.747 1.14193 12.9383 1.76402 12.9383H3.22124L2.98696 13.1726C2.7633 13.396 2.5856 13.6425 2.48466 13.8664C2.41321 14.0247 2.39329 14.1485 2.39754 14.247V14.2486C2.40073 14.3052 2.41055 14.3527 2.4249 14.3921C2.42683 14.3945 2.42827 14.3973 2.42915 14.4003C2.45066 14.4526 2.47962 14.4917 2.50591 14.5174C2.50698 14.518 2.50698 14.519 2.50804 14.5196C2.5091 14.5206 2.5091 14.5206 2.5091 14.5212C2.55983 14.5714 2.65094 14.6314 2.80129 14.6314C3.08497 14.6314 3.48926 14.4048 3.85502 14.039L4.08612 13.808V15.1159C4.08612 15.7385 4.27737 16.4076 4.69758 16.4076C4.81101 16.4076 5.0243 16.3492 5.17199 15.9622C5.25991 15.7332 5.30746 15.4325 5.30746 15.1156V12.9117C5.30746 12.8063 5.30029 12.7038 5.29019 12.6039L7.92094 9.97313V13.7577C7.80858 13.8398 7.69516 13.932 7.58573 14.042L6.02704 15.6004C5.58637 16.0411 5.24796 16.6493 5.54546 16.9458C5.59593 16.9965 5.68783 17.0571 5.83712 17.0571C6.1224 17.0571 6.52535 16.8297 6.89032 16.4647L7.92094 15.4338V15.7653C7.92094 16.388 8.11273 17.0571 8.53188 17.0571V17.0565L8.53401 17.0571C8.95369 17.0571 9.14441 16.3869 9.14441 15.7648V15.4378L10.0696 16.3627C10.4346 16.7277 10.8388 16.9548 11.1239 16.9548C11.2731 16.9548 11.365 16.8942 11.415 16.844C11.496 16.763 11.6062 16.5715 11.436 16.1927C11.3361 15.9693 11.1576 15.7223 10.9337 15.4992L9.37444 13.9402C9.29901 13.8651 9.22224 13.7995 9.14441 13.7362V9.96489L11.7762 12.5967C11.7794 12.6004 11.7837 12.6039 11.7874 12.6081L11.7961 12.6166C11.7739 12.7623 11.7627 12.9094 11.7627 13.0568V15.2615C11.7627 15.8841 11.9539 16.5532 12.3736 16.5532C12.7928 16.5532 12.9846 15.8838 12.9846 15.2615V13.8042L13.2188 14.0382C13.5835 14.4037 13.9881 14.6311 14.2728 14.6311C14.4221 14.6311 14.5138 14.5706 14.564 14.5198C14.564 14.5188 14.565 14.5182 14.565 14.5182C14.5984 14.4844 14.6248 14.4444 14.6426 14.4003L14.6476 14.3897C14.6628 14.3509 14.6713 14.3047 14.6753 14.2508V14.2433C14.6784 14.1453 14.6575 14.0218 14.5881 13.8651C14.4883 13.6414 14.3098 13.3946 14.0853 13.1707L13.8537 12.9396H15.1627C15.7848 12.9396 16.4539 12.7478 16.4539 12.3292C16.4539 11.909 15.7845 11.7183 15.1627 11.7183H12.9553C12.8539 11.7183 12.7513 11.7255 12.6501 11.7353L10.0576 9.14331H13.7527C13.8393 9.25966 13.9371 9.37334 14.0412 9.47853L15.5996 11.0372C15.9649 11.4022 16.3689 11.6293 16.6536 11.6293C16.8029 11.6293 16.894 11.5687 16.9448 11.5185C17.2415 11.2224 16.9033 10.6141 16.4632 10.1739" fill="#1B75BB"/>
<path d="M9.65548 1.29173V1.62323L10.6861 0.592609C10.9432 0.33575 11.2174 0.153 11.4567 0.0640156C11.4036 0.0294844 11.3297 0 11.2272 0C10.9422 0 10.5379 0.227375 10.1729 0.592609L9.64911 1.11748C9.65203 1.17512 9.65548 1.23356 9.65548 1.29173Z" fill="#1C679A"/>
<path d="M8.43066 1.61952V1.29227C8.43066 0.814141 8.54462 0.311578 8.78713 0.102531C8.71382 0.0393125 8.62962 0 8.53293 0L8.53133 0.00053125L8.52815 0C8.1483 0 7.95758 0.54825 7.92358 1.11377L8.43066 1.61952Z" fill="#1C679A"/>
<path d="M12.07 0.72174C12.0204 0.836507 11.9594 0.94597 11.8878 1.04846C11.8044 1.28433 11.7616 1.57652 11.7616 1.86127L11.7621 4.06649C11.7621 4.17194 11.7693 4.27394 11.7794 4.37435L9.65601 6.49722V7.00988L12.2915 4.37435C12.2809 4.27207 12.2753 4.16932 12.2748 4.06649V1.86127C12.2748 1.38501 12.3885 0.883772 12.6289 0.673928C12.5556 0.609381 12.4703 0.570068 12.372 0.570068C12.2536 0.570068 12.1537 0.629303 12.07 0.72174Z" fill="#1C679A"/>
<path d="M4.62879 5.25651H4.4386L7.09485 7.91276H7.60804L4.93319 5.23792C4.83204 5.24947 4.73033 5.25532 4.62852 5.25545" fill="#1C679A"/>
<path d="M5.75185 1.09015C5.85066 1.24714 5.9779 1.40811 6.12851 1.55819L7.68773 3.1174C7.7629 3.19258 7.84073 3.25819 7.91723 3.3214V6.48845L8.43068 7.00164V3.32114C8.35049 3.2574 8.27388 3.1893 8.20118 3.11714L6.64143 1.55792C6.41777 1.33479 6.23901 1.08829 6.13913 0.864639C5.96834 0.485857 6.07884 0.294076 6.16012 0.213061C6.1788 0.195459 6.19907 0.17963 6.22068 0.165779C6.11974 0.127264 6.02305 0.102295 5.93859 0.102295C5.7893 0.102295 5.69793 0.162857 5.64693 0.213061C5.58637 0.273889 5.50934 0.396342 5.54679 0.613889C5.63843 0.733951 5.70616 0.899967 5.75185 1.09015Z" fill="#1C679A"/>
<path d="M13.1623 11.7327C13.2638 11.7229 13.366 11.7157 13.4672 11.7157H13.1442L13.1623 11.7327Z" fill="#1C679A"/>
<path d="M13.1538 5.24746L13.1413 5.26101H13.6154C13.4672 5.26101 13.3177 5.24985 13.1748 5.22754L13.1671 5.23498C13.1623 5.23896 13.1578 5.24427 13.1538 5.24746Z" fill="#1C679A"/>
<path d="M13.7325 7.91349H14.2455C14.309 7.83619 14.3762 7.75863 14.4503 7.68399L16.0095 6.12477C16.2658 5.86844 16.5405 5.68569 16.7801 5.59591C16.7114 5.55291 16.6316 5.53094 16.5506 5.53269C16.2658 5.53269 15.8623 5.76006 15.4971 6.12477L13.9381 7.68399C13.8627 7.75836 13.7958 7.83619 13.7325 7.91349Z" fill="#1C679A"/>
<path d="M16.1102 11.0343L14.5515 9.4756C14.4475 9.37117 14.3514 9.25912 14.2641 9.14038H13.7504C13.837 9.25672 13.9347 9.37041 14.0388 9.4756L15.5973 11.0343C15.9625 11.3993 16.3665 11.6264 16.6513 11.6264C16.7543 11.6264 16.8276 11.5977 16.8818 11.5629C16.6406 11.4739 16.367 11.2911 16.1102 11.0343Z" fill="#1C679A"/>
<path d="M4.91938 11.7486L4.92495 11.7425L4.93983 11.7271L7.52702 9.14099H7.01383L4.43939 11.7152H4.47817C4.6256 11.7152 4.77594 11.7266 4.91938 11.7486Z" fill="#1C679A"/>
<path d="M13.4969 3.1702L13.7286 2.93857C13.9849 2.68171 14.2596 2.49843 14.4997 2.40918C14.4309 2.36587 14.3509 2.3437 14.2697 2.34543C14.0561 2.34543 13.7764 2.47373 13.4969 2.68995V3.1702Z" fill="#1C679A"/>
<path d="M0.788129 11.4591C0.766292 11.4452 0.745755 11.4294 0.72677 11.4118C0.429536 11.1146 0.768739 10.5063 1.20808 10.0667L2.13379 9.1415H1.80627C1.18365 9.1415 0.513473 8.94971 0.513473 8.53003C0.513473 8.52949 0.515067 8.52843 0.515067 8.5279C0.515067 8.52737 0.513473 8.52631 0.513473 8.52578C0.513473 8.10609 1.18364 7.91431 1.80574 7.91431H2.13724L1.10715 6.88368C0.665942 6.44407 0.328067 5.83553 0.625036 5.53935C0.640707 5.52368 0.662223 5.50774 0.686395 5.49154C0.585192 5.45382 0.488504 5.42859 0.403239 5.42859C0.254489 5.42859 0.162583 5.48915 0.112379 5.53935C-0.184589 5.83553 0.153286 6.44407 0.593692 6.88368L1.62432 7.91431H1.29255C0.670192 7.91431 0.000816962 8.10609 0.000816962 8.52578L0.00187946 8.5279L0.000816962 8.53003C0.000816962 8.94971 0.670989 9.1415 1.29308 9.1415H1.62086L0.695692 10.0667C0.255551 10.5063 -0.0823237 11.1146 0.214114 11.4118C0.264583 11.462 0.355958 11.522 0.50577 11.522C0.590239 11.522 0.686926 11.4963 0.788129 11.4591Z" fill="#1C679A"/>
<path d="M8.43066 15.7622V15.4307L7.92358 15.9367C7.95679 16.5035 8.14804 17.0539 8.52815 17.0539V17.0534L8.53027 17.0539C8.62696 17.0539 8.71116 17.0146 8.78447 16.9514C8.54169 16.7423 8.42801 16.2403 8.42801 15.7622" fill="#1C679A"/>
<path d="M6.05442 16.9426C5.75825 16.6462 6.09586 16.0379 6.536 15.5972L8.09521 14.0388C8.20492 13.9288 8.31728 13.8364 8.43043 13.7546V13.7373V9.96997L7.91698 10.4834V13.7538C7.80462 13.8359 7.6912 13.928 7.58176 14.038L6.02307 15.5964C5.5824 16.0371 5.244 16.6454 5.5415 16.9418C5.59197 16.9926 5.68387 17.0531 5.83315 17.0531C5.91762 17.0531 6.01484 17.0274 6.11525 16.9891C6.09337 16.9756 6.07299 16.9599 6.05442 16.9421" fill="#1C679A"/>
<path d="M10.5817 16.3598L9.6568 15.4349V15.7619C9.6568 15.8214 9.65309 15.8812 9.6507 15.9407L10.0688 16.3598C10.4338 16.7248 10.838 16.9519 11.1231 16.9519C11.2256 16.9519 11.2997 16.9232 11.3531 16.8884C11.113 16.7989 10.838 16.6167 10.5817 16.3598Z" fill="#1C679A"/>
<path d="M12.2746 15.2575V13.0528C12.2746 12.9057 12.2863 12.7553 12.3088 12.6127L12.2998 12.6042C12.2961 12.5999 12.2921 12.5965 12.2884 12.5928L9.6571 9.96094V10.4736L11.7757 12.593C11.7789 12.5967 11.7832 12.6002 11.7869 12.6044L11.7957 12.6129C11.7734 12.7586 11.7622 12.9057 11.7622 13.0531V15.2578C11.7622 15.5457 11.8052 15.8403 11.8913 16.0783C11.9112 16.1157 11.9327 16.1529 11.9487 16.1888C11.9643 16.2233 11.9749 16.2539 11.9858 16.2852C12.082 16.4459 12.2098 16.5495 12.3731 16.5495C12.4714 16.5495 12.5564 16.5102 12.6294 16.4454C12.3883 16.2358 12.2746 15.734 12.2746 15.2575Z" fill="#1C679A"/>
<path d="M13.7305 14.035L13.4967 13.801V14.2818C13.7777 14.4994 14.0572 14.6282 14.2715 14.6282C14.3741 14.6282 14.4479 14.599 14.501 14.5642C14.2609 14.4752 13.9868 14.2919 13.7305 14.035Z" fill="#1C679A"/>
<path d="M1.90935 5.25646H2.42147C1.79991 5.25646 1.1308 5.06627 1.12974 4.64658C1.12974 4.22663 1.79991 4.03564 2.42147 4.03564H1.90935C1.28672 4.03564 0.617615 4.22689 0.617615 4.64658C0.617615 5.06627 1.28672 5.25646 1.90935 5.25646Z" fill="#1C679A"/>
<path d="M4.36529 2.9351L4.59957 3.16939V1.71163C4.59957 1.2351 4.71352 0.733338 4.95471 0.52376C4.8806 0.459213 4.79613 0.420166 4.69732 0.420166C4.27816 0.420166 4.08691 1.08901 4.08691 1.71137V2.68781C4.18015 2.76112 4.27418 2.84373 4.36529 2.9351Z" fill="#1C679A"/>
<path d="M4.59585 15.1132V13.8053L4.36396 14.0364C4.27566 14.1255 4.1816 14.2087 4.0824 14.2855V15.1132C4.0824 15.7359 4.27365 16.405 4.69387 16.405C4.75682 16.405 4.85244 16.3845 4.94913 16.3008C4.70821 16.091 4.59585 15.5898 4.59585 15.1132Z" fill="#1C679A"/>
<path d="M3.21671 4.03533H3.72937L3.49827 3.8037C3.14526 3.45122 2.86369 2.99302 2.91629 2.67161C2.91767 2.65571 2.92088 2.64003 2.92585 2.62486C2.9301 2.60547 2.93594 2.58608 2.94365 2.56722C2.96357 2.52153 2.9888 2.4878 3.01297 2.46256C3.01457 2.46097 3.01457 2.4623 3.01616 2.45831C3.01669 2.45725 3.01829 2.45672 3.01643 2.45513H3.01749C3.03316 2.43919 3.05468 2.42299 3.07885 2.40731C2.97685 2.37013 2.88016 2.34436 2.79622 2.34436C2.64588 2.34436 2.55451 2.40439 2.50404 2.45513H2.50351C2.50271 2.45699 2.50324 2.45725 2.49979 2.45831C2.49872 2.45991 2.49872 2.46124 2.49793 2.46256C2.46877 2.49304 2.44529 2.52848 2.4286 2.56722C2.4201 2.58608 2.41532 2.60547 2.4108 2.62486C2.40576 2.6392 2.40363 2.65488 2.40071 2.67188C2.34918 2.99328 2.63021 3.45149 2.98216 3.80397L3.21432 4.03533" fill="#1C679A"/>
<path d="M0.982041 12.325C0.982041 11.9053 1.65142 11.7146 2.27378 11.7146H1.76059C1.13876 11.7146 0.468323 11.9053 0.468323 12.325C0.468323 12.7447 1.13849 12.9359 1.76059 12.9359H2.27378C1.65142 12.9359 0.982041 12.7447 0.982041 12.325Z" fill="#1C679A"/>
<path d="M3.01831 14.5188L3.01777 14.5172C3.01724 14.5166 3.01565 14.5156 3.01751 14.5151C2.98457 14.4814 2.95849 14.4416 2.94074 14.3979C2.94021 14.3976 2.94048 14.3926 2.93756 14.3897C2.92007 14.3438 2.91046 14.2953 2.90913 14.2462V14.2446C2.90435 14.1464 2.9256 14.0223 2.99626 13.864C3.09667 13.6398 3.27517 13.3936 3.49856 13.1702L3.73284 12.9359H3.22018L2.9859 13.1702C2.76224 13.3936 2.58454 13.6401 2.4836 13.864C2.41215 14.0223 2.39223 14.1461 2.39648 14.2446V14.2462C2.39967 14.3028 2.40949 14.3504 2.42384 14.3897C2.42577 14.3921 2.42721 14.3949 2.42809 14.3979C2.4496 14.4502 2.47856 14.4893 2.50485 14.5151C2.50592 14.5156 2.50592 14.5166 2.50698 14.5172C2.50804 14.5182 2.50804 14.5182 2.50804 14.5188C2.55878 14.569 2.64988 14.629 2.80023 14.629C2.88417 14.629 2.98085 14.6038 3.08285 14.5661C3.06073 14.5522 3.03992 14.5364 3.0207 14.5188" fill="#1C679A"/>
</g>
<defs>
<clipPath id="clip0_416_6">
<rect width="17" height="17" fill="white"/>
</clipPath>
</defs>
</svg>
