<svg width="174" height="46" viewBox="0 0 174 46" fill="none" xmlns="http://www.w3.org/2000/svg">
<path d="M50.8674 21.5174L51.5364 19.3769L49.3231 19.4462C49.1362 19.4462 47.777 19.4077 46.4584 18.452C46.5567 18.4617 46.6549 18.4751 46.7552 18.4751C48.1124 18.4751 49.4253 17.6582 49.9517 16.4906L50.9041 14.3809C49.7107 14.3964 48.6194 14.2461 48.6194 14.2461C48.6098 14.2441 47.7499 14.1344 46.7552 13.1189C46.0417 12.3907 45.1589 12.0052 44.2026 12.0052C43.7843 12.0052 43.4102 12.0804 43.0883 12.1825C43.1384 12.0111 43.1866 11.8376 43.2138 11.6584C43.5182 9.68358 42.2459 8.17687 42.2459 8.1789L40.5822 6.11927L39.5507 8.53913C39.5468 8.54687 39.2865 9.11339 38.82 9.39075C38.6792 8.67979 38.3342 7.88025 37.5959 7.11532C36.2039 5.67413 34.5093 5.46025 33.6224 5.46025C33.2117 5.46025 32.9188 5.5046 32.8473 5.51613L30.8386 5.9112C30.9542 5.46228 31.201 4.68188 31.6521 3.97865L32.7607 2.25237L29.971 2.57028L29.0822 0.683973L27.3626 1.5703L25.7721 0L24.1853 1.5703L22.46 0.683973L21.573 2.57028L18.7854 2.25237L19.8958 3.97865C20.3469 4.68188 20.5938 5.46025 20.7075 5.90918L18.791 5.53159L18.7256 5.52006C18.6292 5.5046 18.3382 5.46025 17.9255 5.46025C17.0386 5.46025 15.3441 5.67604 13.9559 7.11532C13.2156 7.87835 12.8706 8.67979 12.7279 9.39075C12.2653 9.11718 12.0069 8.5584 12.0069 8.5584L10.9736 6.12496L9.28285 8.19817C9.07647 8.4659 8.05671 9.88214 8.33427 11.6623C8.36324 11.8396 8.40948 12.013 8.45963 12.1845C8.13961 12.0824 7.76554 12.0072 7.34726 12.0072C6.39099 12.0072 5.50806 12.3926 4.7928 13.1209C3.80176 14.1324 2.94578 14.2461 2.95359 14.2461C2.95359 14.2461 2.04936 14.4079 0.649733 14.3828L1.59631 16.4926C2.12269 17.6622 3.4374 18.4771 4.7928 18.4771C4.89498 18.4771 4.99325 18.4635 5.09354 18.454C3.77871 19.4096 2.41953 19.4481 2.2556 19.45L0 19.3769L0.682489 21.5154C1.02568 22.6176 2.17271 24.4441 4.37061 24.6406C4.13148 25.6425 3.60131 26.7639 2.43691 27.2474L0.757705 27.9391L1.6734 29.5325C2.1901 30.3918 3.40275 31.3975 5.13007 31.3975C5.50415 31.3956 5.8646 31.359 6.2117 31.2858C6.30041 31.6789 6.41216 32.072 6.54332 32.461C7.05799 33.9908 6.61462 35.0582 6.60883 35.0698L5.77981 36.8057L7.63062 37.2933C7.65379 37.3009 8.21281 37.4531 8.91269 37.4531C9.23081 37.4531 9.53341 37.4204 9.81876 37.3531C10.0346 37.3028 10.241 37.2355 10.4395 37.1545C10.6786 37.5841 10.9697 37.9753 11.309 38.3259C12.4947 39.5417 14.1739 40.1582 16.3023 40.1582H16.31L17.8292 40.1389L14.6905 41.4414L17.0734 42.5917C17.939 43.0136 18.9666 43.5126 20.0115 43.8941L19.7146 44.7072L20.5359 45.081C20.6091 45.1136 22.1881 45.8208 24.8139 45.9711C24.8139 45.9711 25.4482 46 25.797 46C26.146 46 26.7726 45.9692 26.7726 45.9692C29.3811 45.815 30.9484 45.1157 31.0217 45.081L31.8449 44.7053L31.5441 43.8903C32.6199 43.4972 33.684 42.9789 34.5131 42.5743L36.8516 41.4395L33.7225 40.1352L35.2476 40.1545C37.378 40.1545 39.0591 39.5379 40.2427 38.3202C40.5801 37.9715 40.8714 37.5804 41.1123 37.1507C41.3109 37.2316 41.519 37.299 41.735 37.3491C42.0183 37.4165 42.3211 37.4494 42.6392 37.4494C43.3273 37.4494 43.8924 37.2972 43.9077 37.2933L45.7662 36.802L44.9564 35.0988C44.9371 35.0544 44.4938 33.9889 45.0085 32.4572C45.1395 32.0661 45.2495 31.6731 45.3382 31.2819C45.6872 31.3551 46.0515 31.3937 46.4275 31.3937C48.6271 31.3937 49.6817 29.8465 49.8861 29.5113L50.7922 27.9353L49.1129 27.2455C47.9467 26.7618 47.4184 25.6386 47.1812 24.6387C49.3481 24.4537 50.5126 22.6272 50.8674 21.5174ZM20.8539 6.64712L20.831 6.65295L20.8502 6.62787L20.8539 6.64712Z" fill="white"/>
<path d="M25.7743 6.55298C23.9967 6.55488 22.6646 7.13673 22.3734 7.8207L25.7743 9.16178L29.175 7.8207C28.8858 7.13673 27.5536 6.55488 25.7743 6.55298Z" fill="white"/>
<path d="M25.8086 42.0515H25.8046H25.7757H25.7429H25.741C24.6632 42.0592 23.1807 41.8376 22.4655 41.6295L21.6056 43.955C22.1724 44.1574 24.0926 44.5427 25.7757 44.5427C27.4549 44.5427 29.377 44.1555 29.9418 43.955L29.0839 41.6295C28.3668 41.8395 26.8861 42.0592 25.8086 42.0515Z" fill="white"/>
<path d="M32.3158 39.739C31.6758 40.1013 30.2472 40.6445 29.4163 40.897L30.1142 42.8179C31.4 42.4671 32.4603 42.0568 33.3377 41.6175L31.8896 41.1358L32.3158 39.739Z" fill="white"/>
<path d="M19.2343 39.739L19.6623 41.1358L18.2125 41.6175C19.0878 42.0568 20.1539 42.4671 21.434 42.8179L22.1319 40.897C21.3048 40.6445 19.8743 40.0993 19.2343 39.739Z" fill="white"/>
<path d="M25.7744 4.32934C27.1143 4.32934 28.4291 4.64915 29.4393 5.21187C29.5319 4.90156 29.661 4.52586 29.8365 4.13281L29.4548 4.17906L29.0538 4.22151L28.8841 3.85735L28.3732 2.77843L27.442 3.26384L27.0796 3.44884L26.7904 3.16375L25.7783 2.16187L24.7681 3.16375L24.4789 3.44884L24.1165 3.26384L23.1795 2.77843L22.6744 3.85735L22.5009 4.22151L22.0999 4.17906L21.7181 4.13281C21.8937 4.52776 22.0208 4.90156 22.1153 5.21187C23.1274 4.64915 24.4384 4.32934 25.7744 4.32934Z" fill="white"/>
<path d="M46.2309 16.7995C46.4045 16.8592 46.5817 16.8861 46.7573 16.8861C47.5148 16.8861 48.2475 16.3968 48.5 15.8361C48.5 15.8361 47.1101 15.7513 45.6159 14.235C45.1398 13.7436 44.6366 13.5973 44.2047 13.5973C43.5338 13.5973 43.0305 13.9518 43.0305 13.9518C44.8351 14.9113 45.2032 16.4526 46.2309 16.7995Z" fill="white"/>
<path d="M4.7916 16.8861C4.96697 16.8861 5.14437 16.8592 5.31407 16.7995C6.34544 16.4526 6.7156 14.9113 8.52016 13.9518C8.52016 13.9518 8.01494 13.5973 7.34794 13.5973C6.91416 13.5973 6.41095 13.7436 5.93282 14.235C4.44072 15.7513 3.05066 15.8361 3.05066 15.8361C3.29936 16.3968 4.03389 16.8861 4.7916 16.8861Z" fill="white"/>
<path d="M46.7212 23.0626C46.7521 23.0645 46.7791 23.0645 46.8119 23.0645C48.7031 23.0645 49.3452 21.0394 49.3452 21.0394H49.3085C48.9615 21.0394 46.1487 20.9586 44.1611 18.4326C42.852 16.7719 41.78 15.3114 39.6612 14.7372L39.4531 14.7006L39.4068 14.4887C39.349 14.165 39.5707 13.8625 40.074 13.535C42.9966 11.6219 41.0127 9.18261 41.0127 9.18261C41.0127 9.18261 40.178 11.1344 38.3099 11.1344C38.2655 11.1344 38.2173 11.1323 38.1711 11.1323C37.9591 11.1208 37.7547 11.1131 37.5483 11.0689L37.2033 11.0013C37.2033 11.0013 37.7354 9.5545 36.4514 8.22507C35.4835 7.2213 34.3057 7.05176 33.6251 7.05176C33.2819 7.05176 33.064 7.09598 33.064 7.09598C33.7099 7.93986 34.1764 9.33872 33.4304 10.2018C32.7865 10.9435 31.2133 10.9802 31.2133 12.0861C31.2133 12.5543 31.6509 13.1015 32.4375 13.5928C34.803 15.0821 37.1512 17.0569 38.1267 19.7043C39.3471 23.0067 37.9725 25.1974 36.0099 26.4536C36.0099 26.4536 36.6249 27.02 37.5176 27.0913C37.6988 27.1086 37.8761 27.1163 38.042 27.1163C39.9255 27.1163 40.899 26.2339 40.899 26.2339C40.899 26.2339 40.739 27.4534 39.7577 28.5864C38.8536 29.6326 37.666 30.2473 35.8556 30.2742C35.8556 30.2742 35.7978 31.1142 36.5998 31.8406C37.1126 32.2991 38.2983 32.4494 38.2983 32.4494C38.2983 32.4494 36.0792 32.8983 35.8345 36.1738C35.7013 37.9481 35.2483 38.5647 35.2483 38.5647H35.289C40.4382 38.5647 40.3052 34.1507 40.3052 34.1507C40.3052 34.1507 40.6638 35.4569 42.1001 35.798C42.2735 35.8443 42.4586 35.8617 42.636 35.8617C43.0988 35.8617 43.4997 35.7537 43.4997 35.7537C43.4997 35.7537 42.7478 34.1681 43.4939 31.9504C44.1128 30.1104 44.0126 28.7463 44.0126 28.7463C44.0126 28.7463 44.7066 29.7944 46.4264 29.8041H46.4436C47.8761 29.8041 48.5006 28.7194 48.5006 28.7194C45.0671 27.2955 45.4065 22.6985 45.4065 22.6985C45.4065 22.6985 45.8518 23.0298 46.7212 23.0626ZM45.6879 27.8638C44.292 27.1761 43.4091 25.3496 43.1952 24.6906C42.9637 28.3128 41.194 30.8271 39.1253 33.247C38.0515 34.5013 37.6776 35.7209 37.6776 35.7209C37.6776 35.7209 37.8838 34.3395 38.8129 33.2144C40.7429 30.8964 42.5763 28.0122 42.7132 24.6771C42.8076 22.3496 42.2081 20.4615 41.273 18.9067C41.7954 20.5271 41.7223 22.5115 39.9466 24.363C39.9466 24.363 43.4804 20.13 38.5393 15.7912C36.5613 14.1401 34.3981 13.1208 33.284 12.3983C37.3093 13.7104 39.2739 12.2653 39.2739 12.2653C37.9879 13.3789 36.3242 13.3596 35.2926 13.1998C35.5722 13.3366 35.8635 13.4791 36.1776 13.6467C39.5707 15.4887 42.6207 18.5194 43.1411 22.7177V22.6849C43.9316 26.8061 45.6879 27.8638 45.6879 27.8638Z" fill="white"/>
<path d="M13.2501 32.4494C13.2501 32.4494 14.4358 32.3011 14.9486 31.8406C15.7486 31.1142 15.6929 30.2742 15.6929 30.2742C13.8806 30.2491 12.6949 29.6326 11.7849 28.5884C10.8113 27.4554 10.6494 26.2358 10.6494 26.2358C10.6494 26.2358 11.6229 27.1183 13.5046 27.1183C13.6743 27.1183 13.8497 27.1105 14.0309 27.0932C14.9235 27.0219 15.5405 26.4554 15.5405 26.4554C13.5777 25.1992 12.2014 23.0067 13.4198 19.7043C14.3972 17.0589 16.7434 15.0821 19.1091 13.5928C19.8956 13.1015 20.3332 12.5561 20.3332 12.0861C20.3332 10.9802 18.762 10.9435 18.118 10.2018C17.3721 9.33872 17.8404 7.93796 18.4843 7.09598C18.4843 7.09598 18.2704 7.05176 17.9252 7.05176C17.2466 7.05176 16.0687 7.2213 15.1009 8.22507C13.813 9.5545 14.3471 11.0013 14.3471 11.0013L14.002 11.0689C13.7958 11.1131 13.5894 11.1208 13.3792 11.1323C13.3312 11.1323 13.2886 11.1344 13.2424 11.1344C11.3705 11.1344 10.5395 9.18452 10.5395 9.18452C10.5395 9.18452 8.55568 11.6238 11.4764 13.5369C11.9797 13.8645 12.1995 14.1669 12.1416 14.4906L12.0953 14.7026L11.8832 14.7392C9.76836 15.3134 8.69453 16.7738 7.38549 18.4346C5.40164 20.9567 2.59268 21.0394 2.24193 21.0394H2.20325C2.20325 21.0394 2.8453 23.0645 4.73653 23.0645C4.76741 23.0645 4.79437 23.0645 4.82713 23.0626C5.69658 23.0317 6.14385 22.6985 6.14385 22.6985C6.14385 22.6985 6.47936 27.2935 3.04965 28.7194C3.04965 28.7194 3.67431 29.8041 5.1067 29.8041H5.12408C6.84562 29.7944 7.53781 28.7463 7.53781 28.7463C7.53781 28.7463 7.43752 30.1104 8.05449 31.9504C8.80049 34.1681 8.05249 35.7537 8.05249 35.7537C8.05249 35.7537 8.45351 35.8617 8.91426 35.8617C9.09354 35.8617 9.27674 35.8443 9.44833 35.798C10.8825 35.4569 11.2431 34.1507 11.2431 34.1507C11.2431 34.1507 11.112 38.5647 16.2615 38.5647H16.298C16.298 38.5647 15.847 37.9481 15.7159 36.1738C15.4692 32.8983 13.2501 32.4494 13.2501 32.4494ZM12.4231 33.247C10.3545 30.8271 8.58656 28.3128 8.35322 24.6906C8.1393 25.3477 7.26013 27.1761 5.86441 27.8638C5.86441 27.8638 7.61869 26.8061 8.40727 22.6849V22.7177C8.92975 18.5214 11.9778 15.4887 15.3727 13.6467C15.6831 13.4772 15.9781 13.3347 16.2557 13.1998C15.2243 13.3596 13.5605 13.3789 12.2745 12.2653C12.2745 12.2653 14.2391 13.7104 18.2626 12.3983C17.1483 13.1208 14.9871 14.1401 13.0091 15.7912C8.06596 20.13 11.6018 24.363 11.6018 24.363C9.82428 22.5095 9.75296 20.5271 10.2753 18.9067C9.33846 20.4634 8.74076 22.3496 8.83715 24.6771C8.97209 28.0122 10.8055 30.8964 12.7315 33.2144C13.6628 34.3376 13.8728 35.7209 13.8728 35.7209C13.8728 35.7209 13.4948 34.5013 12.4231 33.247Z" fill="white"/>
<path d="M21.9668 16.3113C22.0515 16.4017 22.1343 16.5002 22.2135 16.5983C22.2327 16.6215 22.25 16.6427 22.2692 16.6697C22.3427 16.7678 22.4178 16.872 22.4892 16.9779C22.5045 16.9991 22.52 17.0242 22.5373 17.0491C22.6241 17.1802 22.7051 17.3151 22.786 17.4539C23.5283 18.735 24.7179 19.4999 25.7723 19.5019C26.8288 19.4999 28.0145 18.735 28.7606 17.4539C28.8435 17.3112 28.9265 17.1725 29.0131 17.0434C29.0266 17.0242 29.0402 17.0068 29.0516 16.9876C29.1249 16.8777 29.2021 16.7698 29.2831 16.6658C29.3004 16.6427 29.3158 16.6234 29.3313 16.6041C29.4141 16.502 29.4989 16.4018 29.5858 16.3093C29.601 16.2939 29.6126 16.2804 29.6261 16.2689C30.0039 15.8816 30.4552 15.5868 31.0451 15.4231L30.7829 15.2709H30.7675L29.7225 14.664L28.6487 14.0493L25.78 15.61L25.7723 15.6041L25.7665 15.61L22.8959 14.0493L21.824 14.662L20.7772 15.2689H20.7656L20.4995 15.4212C21.0914 15.5849 21.5405 15.8758 21.9204 16.2631C21.9377 16.2785 21.9493 16.2958 21.9668 16.3113ZM24.6116 16.186H25.8262H27.0389V17.0183C26.7538 16.6697 26.1985 16.741 26.1985 16.741V17.9413C26.1985 17.9413 26.2196 18.5309 26.4258 18.787H25.8262H25.2248C25.4349 18.5328 25.4542 17.9413 25.4542 17.9413V16.741C25.4542 16.741 24.9009 16.6697 24.6116 17.0183V16.186Z" fill="white"/>
<path d="M25.5255 14.5711V9.69858L22.4216 8.64648L23.241 13.3689L25.5255 14.5711ZM24.8585 10.8951V11.6773L24.7081 11.6079C24.7005 11.6021 24.4807 11.552 24.095 11.2475C23.4588 10.7544 23.4474 10.2996 23.4474 10.2996L24.8585 10.8951Z" fill="white"/>
<path d="M28.3095 13.3689L29.1251 8.64648L26.0231 9.69858V14.5711L28.3095 13.3689ZM26.6902 10.8951L28.1012 10.3016C28.1012 10.3016 28.0898 10.7563 27.4517 11.2495C27.068 11.5539 26.8462 11.6039 26.8386 11.6098L26.6881 11.6791V10.8951H26.6902Z" fill="white"/>
<path d="M21.1361 25.8688C21.4387 25.9786 21.805 26.0018 21.992 26.0018C21.9998 25.9786 22.0093 25.9496 22.0191 25.915C22.0363 25.8592 22.0519 25.8052 22.0635 25.7435C22.1155 25.4739 22.1347 25.1675 22.1386 24.971C22.0112 24.8919 21.8321 24.7512 21.7319 24.5413C21.6162 24.2985 21.4523 24.1868 21.2112 24.1868C20.899 24.1868 20.5635 24.3736 20.4208 24.4624C20.3072 25.1347 20.8025 25.7455 21.1361 25.8688Z" fill="white"/>
<path d="M28.0011 23.2816C27.4246 23.9078 26.2968 24.9984 26.2409 25.0542L26.1735 25.1236L22.6089 25.0677C22.6068 25.4203 22.549 25.7209 22.4931 25.9405C22.4835 25.9771 22.4739 26.0156 22.4641 26.0542L26.7055 26.8153C27.147 26.507 28.3616 25.6206 28.832 25.2739C28.4888 24.773 28.456 24.1795 28.5331 23.7615C28.3096 23.6169 28.1379 23.4551 28.0011 23.2816Z" fill="white"/>
<path d="M28.485 18.9975C27.6635 19.8125 26.8751 20.113 26.1714 20.1824C26.0442 20.1959 25.915 20.2035 25.784 20.2035H25.7742H25.7665C25.6355 20.2035 25.5043 20.1959 25.3771 20.1824C25.2537 20.1708 25.1246 20.1516 24.9955 20.1227C24.949 20.3057 24.8912 20.6891 25.0571 21.0513C25.2055 21.3808 25.5082 21.6255 25.9497 21.7874L26.0981 21.8451L26.1001 22.0051C26.1001 22.0532 26.1348 23.0898 27.2665 23.3768C27.4515 23.1861 27.6192 23.0147 27.7427 22.872C27.5112 22.3287 27.6327 21.7738 27.9681 21.5021C27.9528 21.5599 27.8063 22.9203 28.8975 23.4249L29.0768 23.5099L29.0227 23.7006C29.0053 23.7584 28.641 25.0743 29.9617 25.5637L30.1949 25.6523L30.0907 25.8797C30.0677 25.9297 29.5491 27.1244 30.7695 27.8025H33.4163V25.7024C32.4757 25.5868 32.0765 24.8316 31.9743 24.2959C31.5368 24.2207 31.1975 24.032 30.966 23.7237C30.4107 22.9934 30.8889 22.3249 30.8947 22.2883C30.8929 22.2941 30.8947 23.0069 31.3343 23.4462C31.5521 23.6581 31.8106 23.822 32.2018 23.8586L32.3946 23.8759L32.412 24.0725C32.4157 24.1148 32.5219 25.0782 33.4183 25.2304L33.4163 20.9415C33.4163 20.2768 33.6112 19.6083 33.8445 18.9917H28.485V18.9975Z" fill="white"/>
<path d="M21.3615 20.9614L21.2902 23.6936L21.6005 23.7398L22.3602 21.1195L21.9746 20.3141L21.3615 20.9614Z" fill="white"/>
<path d="M29.7363 33.4915C29.7594 33.4915 29.7864 33.4954 29.8115 33.5011C30.2838 33.6361 30.4034 35.3392 31.2323 35.4914C31.3133 35.5088 31.3885 35.5126 31.4541 35.5126C31.6931 35.5126 31.8358 35.4104 31.99 35.2294C31.99 35.2294 31.5735 34.5743 31.2613 34.1332C30.8468 33.5551 30.5249 32.8556 29.7537 32.8556C29.7363 32.8556 29.7133 32.8556 29.694 32.8577C29.4395 32.8711 29.2832 32.9944 29.2832 32.9944C28.9709 32.7979 28.6799 32.7304 28.4156 32.7304C27.9319 32.7304 27.556 32.9521 27.3688 32.9521H27.3612L25.6376 32.7826C25.3677 32.7575 25.1557 32.4858 25.0786 32.3799C25.0592 32.3509 25.0496 32.3336 25.0496 32.3336C25.0496 32.2873 25.0496 32.2392 25.0458 32.1968C24.9879 30.7884 23.8968 30.1853 23.5092 30.1756C23.5092 30.1756 23.5555 29.9079 23.4496 29.8058L23.0697 30.2662L21.8224 29.64L22.7111 30.6786L21.9573 31.5243C21.8627 31.6208 21.8744 31.7518 21.9129 31.8057L22.2387 32.0928L22.6514 31.8423C22.6725 31.8269 22.7092 31.823 22.7554 31.823C22.8692 31.823 23.0408 31.8518 23.195 31.8518C23.3627 31.8518 23.5092 31.8152 23.5266 31.6572C23.4746 32.1794 22.9906 33.0869 23.3087 33.7998L23.544 34.3374L22.0209 34.1176L21.3075 35.3219C21.0878 35.7227 21.0531 36.1561 21.2652 36.3912L21.5312 36.7246C21.5312 36.7246 21.9053 36.3276 21.9901 36.0675L21.8685 35.9345C21.7664 35.8228 21.7722 35.7227 21.8339 35.6013L22.2812 34.8594L24.0799 35.2834L24.1743 35.1215C24.2957 34.9192 24.4713 34.8575 24.6641 34.8575C24.7431 34.8575 24.8241 34.8671 24.9089 34.8807C25.2425 34.9462 25.792 35.0348 26.3414 35.0348C26.9448 35.0348 27.5424 34.9269 27.8604 34.5705C28.5121 35.5358 29.8327 35.6899 29.7286 36.1792L29.3816 37.8324C29.6111 37.8227 29.8327 37.8073 30.0428 37.7784L30.3726 36.0578C30.4093 35.8709 30.4438 35.6185 30.4438 35.6185C30.3166 35.4895 30.0081 35.2159 29.8347 34.8845C29.6013 34.4374 29.7286 34.2044 29.5108 33.6225C29.5184 33.6264 29.584 33.4915 29.7363 33.4915ZM23.0081 31.0754C22.9193 31.0735 22.8557 30.9984 22.8595 30.9098C22.8673 30.825 22.9385 30.7575 23.0253 30.7652C23.114 30.7691 23.1777 30.8462 23.1738 30.931C23.166 31.0157 23.0929 31.0813 23.0081 31.0754Z" fill="white"/>
<path d="M20.5519 35.0557C20.5519 35.0557 21.1475 34.811 21.2014 34.6356L21.1225 34.4372C21.0665 34.3081 21.0743 34.1674 21.1822 34.0904L21.8261 33.6453L22.9019 33.8514C22.9019 33.8514 22.7071 33.6087 22.7265 33.283L21.7009 33.0653L20.733 33.6549C20.3185 33.9651 20.2876 34.4718 20.4246 34.7723L20.5519 35.0557Z" fill="white"/>
<path d="M28.1552 37.8583C28.3479 37.8507 28.5599 37.8468 28.7933 37.8468C28.7933 37.8468 29.3467 36.2303 29.3774 36.1784C29.0671 36.0415 28.4231 35.7004 28.1744 35.5444C28.3383 35.7891 28.7374 36.0704 28.6584 36.2862L28.1552 37.8583Z" fill="white"/>
<path d="M33.4216 28.2699H18.1277V34.0191C18.1277 36.3697 19.8301 37.8418 22.342 37.8418C24.4416 37.8418 24.9948 37.9226 25.7757 38.6972C26.3135 38.1616 26.7589 37.9611 27.6727 37.886L27.6939 37.7975L28.1758 36.3081C28.1488 36.2753 27.3604 35.3795 27.3604 35.3795C27.0481 35.4836 26.7859 35.5009 26.3444 35.5009C25.8913 35.5009 25.3805 35.4488 24.8272 35.3448C24.7712 35.3314 24.7192 35.3274 24.667 35.3274C24.5996 35.3274 24.5939 35.3332 24.5765 35.366L24.4801 35.5239L24.3047 35.8129L23.975 35.7378L22.5079 35.3929L22.3073 35.7244L22.3382 35.759L22.5175 35.9555L22.4385 36.2118C22.3305 36.547 21.9796 36.9381 21.8737 37.0461L21.5072 37.4391L21.1738 37.0172L20.9232 36.7031C20.659 36.4084 20.5974 35.9555 20.7458 35.4816C20.7419 35.4854 20.7361 35.4873 20.7304 35.4873L20.3159 35.6588L20.1288 35.2541L19.9977 34.9672C19.7723 34.4624 19.855 33.7244 20.4624 33.2793L21.6443 32.6127L22.7682 32.8343C22.7952 32.7263 22.8355 32.341 22.8683 32.2429C22.8472 32.2409 22.8261 32.2351 22.8047 32.2351L22.157 32.4759L21.5323 32.0444C21.5323 32.0444 21.2875 31.8092 21.5091 31.5742L22.1145 30.6591L20.5818 28.7361L22.9377 29.7035L23.094 29.5088L23.412 29.1292L23.7726 29.4722C23.8748 29.5705 23.9326 29.6918 23.9615 29.8132C24.6111 30.0656 25.7736 30.8113 25.8758 32.0231L25.5115 32.1695V32.1792C25.5944 32.2775 25.6638 32.318 25.6849 32.3217L27.3661 32.4875C27.4086 32.4798 27.4626 32.4605 27.5223 32.4432C27.7306 32.3719 28.0448 32.2698 28.4168 32.2698C28.7196 32.2698 29.0124 32.3391 29.294 32.4702C29.3981 32.4317 29.5254 32.4027 29.672 32.3931L29.7528 32.3912C30.6532 32.3912 31.1003 33.0635 31.4591 33.5993C31.5188 33.6916 31.5786 33.7803 31.6403 33.8669C31.9545 34.3102 32.3651 34.9594 32.3825 34.9865L32.5676 35.2755L32.34 35.5394C32.1647 35.7416 31.9025 35.9787 31.4513 35.9787C31.3589 35.9787 31.2567 35.9691 31.1468 35.9478C31.0504 35.9305 30.9636 35.9015 30.8788 35.8669C30.8653 35.9555 30.8479 36.0615 30.8305 36.152L30.5356 37.6895C32.2996 37.2561 33.4197 35.9247 33.4197 34.0211L33.4216 28.2699Z" fill="#FFDD2D"/>
<path d="M18.128 27.8082H30.021C29.4273 27.1955 29.4351 26.4191 29.5873 25.9142C29.4138 25.8313 29.2711 25.7311 29.144 25.6233C28.6793 25.9662 27.2604 26.999 26.8902 27.257L26.8112 27.3111L22.1437 26.4672H22.0493C21.9375 26.4672 21.7736 26.4633 21.5943 26.4421C21.5442 26.6521 21.363 26.7967 21.1547 26.7967C21.1316 26.7967 21.1046 26.7947 21.0796 26.7889C20.958 26.7677 20.8522 26.706 20.7808 26.6039C20.7076 26.5038 20.6787 26.3843 20.6998 26.2611L20.7171 26.1608C20.2352 25.8218 19.7918 25.0645 19.9883 24.2669L20.0076 24.1821L20.0751 24.1339C20.0848 24.1263 20.1657 24.0723 20.2853 24.0029L19.946 23.9509C19.8187 23.9278 19.7339 23.8102 19.7533 23.6851C19.7745 23.5579 19.894 23.4672 20.0192 23.4923L20.8271 23.6195L20.9003 20.7756L22.1033 19.504L22.8533 21.0821L22.0608 23.818L22.7742 23.9297C22.8995 23.949 22.9863 24.0665 22.9671 24.1956C22.9477 24.3092 22.8514 24.3883 22.7376 24.3883C22.726 24.3883 22.7125 24.3883 22.7009 24.3864L22.1206 24.292C22.1284 24.3092 22.1398 24.3188 22.1476 24.3381C22.2093 24.4653 22.3462 24.5578 22.4271 24.5963L25.9862 24.6522C26.1364 24.5058 26.5105 24.1397 26.8941 23.7524C26.0189 23.421 25.7007 22.6658 25.6467 22.1648C25.1571 21.9567 24.8197 21.6447 24.6327 21.238C24.4052 20.7353 24.4861 20.2324 24.5459 19.9877C24.0717 19.8142 23.5724 19.4984 23.0633 18.9935H17.7039C17.9333 19.6099 18.128 20.2787 18.128 20.9434V27.8082Z" fill="#FFDD2D"/>
<path d="M23.0271 30.7656C22.9402 30.7579 22.8669 30.8252 22.8611 30.91C22.8553 30.9986 22.9209 31.0737 23.0097 31.0756C23.0945 31.0834 23.1699 31.0179 23.1775 30.9312C23.1775 30.8464 23.1159 30.7675 23.0271 30.7656Z" fill="#2C3F4D"/>
<path d="M33.401 41.1898L32.52 40.8525L32.7628 39.9432L33.0308 38.9509C33.0308 38.9509 31.4692 39.7968 29.2695 40.4327C28.6448 40.6118 28.1725 40.6927 28.1725 40.6927V41.367C28.1725 41.367 26.9965 41.5713 25.807 41.5713H25.7934H25.7761H25.753H25.7394C24.55 41.5713 23.374 41.367 23.374 41.367V40.6927C23.374 40.6927 22.8996 40.6118 22.277 40.4327C20.0772 39.7968 18.5175 38.9509 18.5175 38.9509L18.7816 39.9432L19.0304 40.8525L18.1474 41.1898L17.1681 41.5558C18.292 42.0972 19.8478 42.8873 21.2726 43.2764L20.9371 44.1935C20.9371 44.1935 22.7436 45.0162 25.753 45.024V45.0259H25.7627H25.7761H25.7878H25.7953V45.024C28.8088 45.0162 30.6131 44.1935 30.6131 44.1935L30.2757 43.2764C31.7004 42.8873 33.2602 42.0972 34.3784 41.5558L33.401 41.1898ZM18.213 41.6175L19.6627 41.1359L19.2348 39.739C19.8728 40.1012 21.3054 40.6445 22.1343 40.8969L21.4345 42.8178C20.1543 42.4653 19.0882 42.0549 18.213 41.6175ZM25.7761 44.5422C24.093 44.5422 22.1709 44.155 21.6061 43.9547L22.4658 41.6291C23.1792 41.8372 24.6638 42.0587 25.7413 42.0509H25.7433H25.7761H25.805H25.8089C26.8867 42.0587 28.3672 41.8372 29.0844 41.6291L29.9422 43.9547C29.3774 44.1569 27.4572 44.5422 25.7761 44.5422ZM30.1139 42.8178L29.4161 40.8969C30.2469 40.6445 31.6754 40.1012 32.3156 39.739L31.8895 41.1359L33.3373 41.6175C32.4601 42.0549 31.3997 42.4653 30.1139 42.8178Z" fill="#2C3F4D"/>
<path d="M25.7745 4.8912C27.5674 4.8912 29.0017 5.4847 29.7941 6.11862C29.7941 6.11862 30.0292 4.70241 30.8332 3.45205L29.3892 3.61575L28.6335 2.01086L27.1818 2.75845L25.7745 1.36731L24.3709 2.75845L22.9173 2.01086L22.1635 3.61575L20.7195 3.45205C21.5233 4.70241 21.7586 6.11862 21.7586 6.11862C22.5529 5.4847 23.9834 4.8912 25.7745 4.8912ZM22.0979 4.17834L22.499 4.22079L22.6725 3.85663L23.1775 2.7777L24.1145 3.26122L24.477 3.44621L24.7662 3.16112L25.7764 2.15924L26.7885 3.16112L27.0777 3.44621L27.4401 3.26122L28.3714 2.7777L28.8823 3.85663L29.0519 4.22079L29.4528 4.17834L29.8346 4.13209C29.6592 4.52716 29.5299 4.90083 29.4374 5.21114C28.4271 4.64856 27.1124 4.32862 25.7726 4.32862C24.4385 4.32862 23.1255 4.64856 22.1114 5.21114C22.017 4.90083 21.8898 4.52513 21.7142 4.13209L22.0979 4.17834Z" fill="#2C3F4D"/>
<path d="M46.8096 23.6819C49.1289 23.6819 49.9039 21.3237 49.9366 21.2235L50.195 20.393L49.3255 20.42H49.3218C49.0152 20.42 46.4568 20.3526 44.6427 18.0482L44.4711 17.8344C43.2855 16.3278 42.1615 14.8962 40.1526 14.243C40.2105 14.1911 40.2934 14.1255 40.4071 14.0523C41.4732 13.351 42.094 12.4993 42.2501 11.511C42.4776 10.0235 41.5292 8.83864 41.4868 8.79048L40.8409 7.99285L40.438 8.93886C40.4111 8.99854 39.7323 10.513 38.3057 10.513H38.1996C38.1014 10.5071 38.0088 10.5033 37.9163 10.4955C37.9665 9.81933 37.8429 8.77312 36.8945 7.7924C35.755 6.61135 34.3555 6.43408 33.623 6.43408C33.2315 6.43408 32.9712 6.48224 32.9442 6.48617L31.9688 6.67876L32.5703 7.47069C33.0426 8.08143 33.4706 9.20862 32.9635 9.79815C32.8015 9.98502 32.4682 10.1372 32.1481 10.2894C31.4906 10.5918 30.5941 11.0119 30.5941 12.0832C30.5941 12.7768 31.1321 13.5012 32.1075 14.1177C34.9956 15.9327 36.7769 17.8267 37.5462 19.9171C38.7357 23.1329 37.1836 24.967 35.6761 25.9324L34.9993 26.3677L35.5913 26.911C35.6702 26.9805 36.3952 27.6182 37.4651 27.7107C37.6675 27.7242 37.8622 27.7357 38.0435 27.7357C38.7299 27.7357 39.3141 27.6278 39.7882 27.4832C39.6571 27.7126 39.4971 27.9457 39.2947 28.1808C38.433 29.1787 37.3727 29.6335 35.8477 29.6566L35.2808 29.6663L35.2365 30.2346C35.2306 30.3483 35.1884 31.4022 36.1869 32.2982C36.3393 32.4368 36.5244 32.5506 36.7171 32.645C36.0405 33.2538 35.3521 34.3135 35.2193 36.1304C35.1074 37.6466 34.7449 38.2074 34.741 38.213L34.1146 39.1687L35.2462 39.1842C37.1162 39.1842 38.5486 38.6678 39.5414 37.6466C40.1276 37.0416 40.4631 36.3596 40.6616 35.7547C40.9875 36.032 41.4078 36.2748 41.9552 36.4039C42.1634 36.4521 42.391 36.479 42.6358 36.479C43.1641 36.479 43.6056 36.3673 43.6557 36.3558L44.3785 36.163L44.0586 35.4887C44.0354 35.4348 43.4321 34.0822 44.0816 32.1517C44.3612 31.3174 44.5039 30.5698 44.5732 29.988C45.0283 30.2249 45.6376 30.4215 46.4259 30.4234C48.2151 30.4234 49.0036 29.0882 49.0402 29.0324L49.393 28.4196L48.7395 28.1499C46.6072 27.2656 46.135 24.8899 46.0404 23.6029C46.2332 23.6395 46.4531 23.6742 46.7016 23.6819H46.8096ZM48.5003 28.7182C48.5003 28.7182 47.8757 29.8031 46.4433 29.8031H46.4259C44.7063 29.7934 44.0123 28.7453 44.0123 28.7453C44.0123 28.7453 44.1125 30.1094 43.4918 31.9494C42.7456 34.167 43.4975 35.7528 43.4975 35.7528C43.4975 35.7528 43.0965 35.8606 42.6339 35.8606C42.4564 35.8606 42.2714 35.8433 42.0979 35.797C40.6616 35.456 40.3031 34.1497 40.3031 34.1497C40.3031 34.1497 40.436 38.5638 35.2867 38.5638H35.2462C35.2462 38.5638 35.6992 37.9472 35.8342 36.1726C36.0789 32.8973 38.2981 32.4485 38.2981 32.4485C38.2981 32.4485 37.1142 32.3001 36.6014 31.8396C35.7994 31.1132 35.8553 30.2731 35.8553 30.2731C37.6675 30.2481 38.8533 29.6316 39.7573 28.5854C40.7369 27.4525 40.8987 26.2329 40.8987 26.2329C40.8987 26.2329 39.9251 27.1153 38.0417 27.1153C37.8758 27.1153 37.6984 27.1076 37.5172 27.0902C36.6265 27.019 36.0096 26.4524 36.0096 26.4524C37.9702 25.1963 39.3468 23.0037 38.1265 19.7013C37.1489 17.056 34.8008 15.0792 32.4373 13.5899C31.6506 13.0986 31.213 12.5534 31.213 12.0832C31.213 10.9773 32.7862 10.9426 33.432 10.1988C34.1761 9.33571 33.7096 7.93507 33.0638 7.0931C33.0638 7.0931 33.2816 7.04875 33.6248 7.04875C34.3053 7.04875 35.4833 7.22018 36.451 8.22207C37.737 9.55149 37.2029 10.9985 37.2029 10.9985L37.5481 11.0659C37.7543 11.1102 37.9587 11.118 38.1708 11.1275C38.2169 11.1275 38.2633 11.1295 38.3095 11.1295C40.1777 11.1295 41.0125 9.1777 41.0125 9.1777C41.0125 9.1777 42.9983 11.6189 40.0755 13.5301C39.5723 13.8576 39.3505 14.1601 39.4085 14.4838L39.4548 14.6958L39.663 14.7324C41.7817 15.3066 42.8537 16.7671 44.1627 18.4277C46.1503 20.9537 48.9632 21.0347 49.3101 21.0347H49.3468C49.3468 21.0347 48.7047 23.0596 46.8135 23.0596C46.7826 23.0596 46.7557 23.0596 46.7229 23.0577C45.8534 23.0268 45.4081 22.6936 45.4081 22.6936C45.4081 22.6936 45.0668 27.2925 48.5003 28.7182Z" fill="#2C3F4D"/>
<path d="M42.7356 14.498C43.6011 14.9584 44.1044 15.575 44.5459 16.1221C44.9796 16.6558 45.3923 17.1703 46.036 17.3842C46.2654 17.4632 46.5083 17.4998 46.7552 17.4998C47.7229 17.4998 48.6947 16.9083 49.0628 16.0895L49.433 15.2686L48.5366 15.2147C48.4941 15.2128 47.3412 15.1087 46.0574 13.7966C45.5291 13.2592 44.8909 12.9758 44.2026 12.9758C43.3622 12.9758 42.7393 13.3959 42.6699 13.4383L41.8448 14.0183L42.7356 14.498ZM44.2046 13.5964C44.6364 13.5964 45.1396 13.7427 45.6159 14.234C47.1098 15.7504 48.4999 15.8351 48.4999 15.8351C48.2474 16.3938 47.5148 16.8852 46.7571 16.8852C46.5818 16.8852 46.4062 16.8582 46.2308 16.7985C45.2032 16.4517 44.835 14.9103 43.0285 13.9507C43.0285 13.9507 43.5338 13.5964 44.2046 13.5964Z" fill="#2C3F4D"/>
<path d="M43.1401 22.6842V22.7151C42.6197 18.5188 39.5697 15.4881 36.1766 13.6442C35.8624 13.4765 35.5732 13.334 35.2918 13.1972C36.3251 13.3571 37.9889 13.3764 39.2728 12.2627C39.2728 12.2627 37.3083 13.7078 33.2828 12.3957C34.3973 13.1182 36.5623 14.1375 38.5383 15.7886C43.4796 20.1274 39.9437 24.3604 39.9437 24.3604C41.7194 22.509 41.7926 20.5245 41.2702 18.9041C42.2051 20.4589 42.8028 22.347 42.7102 24.6745C42.5735 28.0096 40.74 30.8939 38.8101 33.2118C37.8827 34.3369 37.6747 35.7184 37.6747 35.7184C37.6747 35.7184 38.0486 34.4988 39.1224 33.2444C41.191 30.8246 42.9589 28.3102 43.1902 24.688C43.4043 25.3451 44.2854 27.1735 45.6831 27.8613C45.6868 27.8632 43.9306 26.8055 43.1401 22.6842Z" fill="#2C3F4D"/>
<path d="M16.8071 38.2121C16.8052 38.2064 16.4466 37.6458 16.331 36.1294C16.1961 34.3126 15.5096 33.2529 14.8311 32.644C15.0277 32.5516 15.2089 32.4379 15.3612 32.2973C16.358 31.4013 16.3154 30.3475 16.3097 30.2338L16.2711 29.6654L15.7005 29.6558C14.1794 29.6307 13.1171 29.176 12.2553 28.1798C12.0548 27.9449 11.8929 27.7117 11.7619 27.4825C12.236 27.6269 12.8163 27.7349 13.5045 27.7349C13.6897 27.7349 13.8806 27.7232 14.083 27.7098C15.153 27.6173 15.8779 26.9813 15.9588 26.9102L16.5506 26.367L15.874 25.9314C14.3606 24.9642 12.8144 23.13 14.002 19.9163C14.7712 17.8258 16.5506 15.9318 19.4425 14.1168C20.4181 13.5002 20.952 12.776 20.952 12.0823C20.952 11.011 20.0575 10.5891 19.4001 10.2885C19.08 10.1363 18.7466 9.98415 18.5847 9.79727C18.0757 9.20954 18.5055 8.08056 18.976 7.4697L19.5814 6.6779L18.602 6.48518C18.5731 6.48137 18.3166 6.43323 17.9234 6.43323C17.1907 6.43323 15.7949 6.61049 14.6536 7.79154C13.7032 8.77417 13.578 9.82037 13.6261 10.4947C13.5335 10.5024 13.4411 10.5063 13.3446 10.512H13.2406C11.8101 10.512 11.1334 8.99768 11.1064 8.93788L10.7033 7.99187L10.0517 8.7895C10.0152 8.83778 9.06281 10.0246 9.29413 11.51C9.44835 12.4983 10.0691 13.3499 11.1352 14.0514C11.2509 14.1246 11.3318 14.1901 11.3897 14.2422C9.38283 14.8952 8.26076 16.3287 7.07506 17.8354L6.90346 18.0493C5.09134 20.3536 2.52719 20.4212 2.22065 20.4212L1.34741 20.3941L1.61338 21.2244C1.64424 21.3246 2.41732 23.683 4.73844 23.683L4.85032 23.6792C5.09512 23.6714 5.31498 23.6387 5.51164 23.6001C5.41514 24.8852 4.94281 27.2609 2.80864 28.1472L2.15702 28.4169L2.50992 29.0295C2.54458 29.0854 3.33504 30.4207 5.12788 30.4207C5.91066 30.4187 6.51982 30.2221 6.97679 29.9852C7.04621 30.567 7.18883 31.3146 7.46841 32.1489C8.11814 34.0794 7.51275 35.4319 7.48956 35.4859L7.16956 36.1604L7.89451 36.353C7.94263 36.3645 8.38802 36.4761 8.91427 36.4761C9.16108 36.4761 9.38862 36.4492 9.59299 36.401C10.1424 36.2719 10.5665 36.0293 10.8884 35.7518C11.0851 36.3567 11.4225 37.0389 12.0067 37.6439C13.0014 38.665 14.4318 39.1812 16.3019 39.1812L17.4356 39.166L16.8071 38.2121ZM16.2595 38.5648C11.1101 38.5648 11.2413 34.1507 11.2413 34.1507C11.2413 34.1507 10.8828 35.457 9.44645 35.7981C9.27485 35.8443 9.09166 35.8617 8.91238 35.8617C8.44974 35.8617 8.05061 35.7536 8.05061 35.7536C8.05061 35.7536 8.79861 34.1681 8.05249 31.9505C7.43564 30.1104 7.53593 28.7464 7.53593 28.7464C7.53593 28.7464 6.84375 29.7944 5.12222 29.804H5.10483C3.67244 29.804 3.04777 28.7193 3.04777 28.7193C6.47938 27.2955 6.14197 22.6985 6.14197 22.6985C6.14197 22.6985 5.69673 23.0297 4.82525 23.0626C4.79439 23.0644 4.76554 23.0645 4.73466 23.0645C2.8414 23.0645 2.20138 21.0396 2.20138 21.0396H2.23993C2.58892 21.0396 5.39788 20.9586 7.3855 18.4326C8.69454 16.7718 9.76832 15.3133 11.8832 14.7374L12.0952 14.7008L12.1416 14.4888C12.1994 14.1651 11.9797 13.8626 11.4765 13.535C8.5538 11.6217 10.5396 9.18255 10.5396 9.18255C10.5396 9.18255 11.3705 11.1325 13.2424 11.1325C13.2887 11.1325 13.3311 11.1305 13.3793 11.1305C13.5893 11.1189 13.7977 11.1112 14.002 11.067L14.3471 10.9995C14.3471 10.9995 13.8131 9.55254 15.1009 8.22312C16.0687 7.21933 17.2466 7.04979 17.9252 7.04979C18.2703 7.04979 18.4844 7.09402 18.4844 7.09402C17.8405 7.9379 17.3739 9.33676 18.1179 10.2C18.7619 10.9417 20.3332 10.9783 20.3332 12.0842C20.3332 12.5524 19.8956 13.0997 19.1091 13.5909C16.7434 15.0803 14.3954 17.057 13.4197 19.7024C12.2014 23.0048 13.576 25.1954 15.5404 26.4536C15.5404 26.4536 14.9235 27.02 14.0309 27.0914C13.8498 27.1087 13.6743 27.1163 13.5045 27.1163C11.623 27.1163 10.6494 26.2338 10.6494 26.2338C10.6494 26.2338 10.8113 27.4536 11.785 28.5865C12.6949 29.6326 13.8806 30.2491 15.6928 30.2743C15.6928 30.2743 15.7507 31.1143 14.9486 31.8405C14.4339 32.299 13.25 32.4494 13.25 32.4494C13.25 32.4494 15.4711 32.8983 15.714 36.1737C15.847 37.9481 16.2962 38.5648 16.2962 38.5648H16.2595Z" fill="#2C3F4D"/>
<path d="M4.79133 17.5025C5.04003 17.5025 5.28294 17.4658 5.51225 17.3867C6.16008 17.1729 6.5707 16.6585 7.00447 16.1248C7.44796 15.5776 7.94727 14.9611 8.81281 14.5006L9.7036 14.0228L8.87645 13.4428C8.80702 13.3985 8.18626 12.9805 7.34767 12.9805C6.65751 12.9805 6.01746 13.2617 5.49108 13.8011C4.20712 15.1113 3.05618 15.2172 3.01372 15.2192L2.11731 15.2712L2.48558 16.0939C2.85561 16.9089 3.82536 17.5025 4.79133 17.5025ZM5.93256 14.2367C6.41068 13.7452 6.91389 13.5989 7.34767 13.5989C8.01467 13.5989 8.51975 13.9533 8.51975 13.9533C6.71533 14.9148 6.34517 16.4543 5.31369 16.8011C5.1441 16.8608 4.96671 16.8878 4.79133 16.8878C4.03361 16.8878 3.30099 16.3984 3.05039 15.8377C3.05039 15.8358 4.43843 15.7509 5.93256 14.2367Z" fill="#2C3F4D"/>
<path d="M8.8378 24.6765C8.74142 22.349 9.33912 20.4608 10.276 18.906C9.7535 20.5263 9.82491 22.5109 11.6024 24.3625C11.6024 24.3625 8.06661 20.1295 13.0097 15.7905C14.9878 14.1393 17.1509 13.1201 18.2633 12.3976C14.2398 13.7096 12.2752 12.2646 12.2752 12.2646C13.5591 13.3783 15.223 13.3591 16.2564 13.1973C15.9769 13.334 15.6837 13.4766 15.3732 13.6442C11.9765 15.488 8.92839 18.5187 8.4059 22.7151V22.6824C7.61746 26.8036 5.86304 27.8613 5.86304 27.8613C7.25889 27.1734 8.13805 25.347 8.35198 24.6881C8.58532 28.3103 10.3531 30.8246 12.4217 33.2446C13.4955 34.4987 13.8735 35.7184 13.8735 35.7184C13.8735 35.7184 13.6633 34.3369 12.7322 33.2117C10.8062 30.8978 8.97274 28.0116 8.8378 24.6765Z" fill="#2C3F4D"/>
<path d="M24.6115 16.1868V17.0191C24.8988 16.6703 25.454 16.7417 25.454 16.7417V17.9421C25.454 17.9421 25.4347 18.5316 25.2246 18.7878H25.8261H26.4256C26.2194 18.5335 26.1981 17.9421 26.1981 17.9421V16.7417C26.1981 16.7417 26.7534 16.6703 27.0387 17.0191V16.1868H25.8261H24.6115Z" fill="#2C3F4D"/>
<path d="M24.0952 11.25C24.4788 11.5546 24.7006 11.6046 24.7083 11.6104L24.8586 11.6797V10.8955L23.4475 10.3021C23.4475 10.304 23.461 10.7568 24.0952 11.25Z" fill="#2C3F4D"/>
<path d="M27.4517 11.25C28.0899 10.7568 28.1014 10.3021 28.1014 10.3021L26.6903 10.8955V11.6797L26.8386 11.6104C26.8483 11.6046 27.0681 11.5546 27.4517 11.25Z" fill="#2C3F4D"/>
<path d="M29.9941 8.05678C29.9941 6.86801 27.991 5.79871 25.7796 5.79871H25.7777H25.772H25.7662C23.5549 5.79871 21.5518 6.86801 21.5518 8.05678L21.5962 8.34961L22.4791 13.4149L21.5924 13.9293L19.2981 15.2684H19.3059C19.3059 15.2684 18.7892 15.5323 18.55 15.6961C17.6769 16.3031 17.4918 17.1874 17.9987 17.5535C18.1241 16.8329 18.6947 16.0776 19.7628 16.0776C20.532 16.0776 21.1181 16.4745 21.5924 17.0699C21.7138 17.2201 21.8295 17.3801 21.9375 17.5535C22.0704 17.7711 22.2034 17.962 22.3365 18.1469H16.4276C16.8614 19.0197 17.2738 19.9446 17.2738 20.9483V34.0191C17.2738 37.1827 19.7088 38.6932 22.3423 38.6932C24.3781 38.6932 24.652 38.6007 25.7759 39.7182C26.8941 38.5988 27.1678 38.6932 29.2056 38.6932C31.841 38.6932 34.2721 37.1827 34.2721 34.0191V20.9483C34.2721 19.9446 34.6847 19.0197 35.1204 18.1469H29.2094C29.3405 17.9638 29.4736 17.7711 29.6065 17.5535C29.7164 17.3801 29.8301 17.2201 29.9497 17.0699C30.4278 16.4726 31.012 16.0776 31.7812 16.0776C32.8492 16.0776 33.418 16.831 33.5452 17.5535C34.0524 17.1874 33.8691 16.3031 32.9899 15.6961C32.7548 15.5323 32.238 15.2684 32.238 15.2684H32.2458L29.9516 13.9293L29.0687 13.4149L29.9516 8.34961L29.9941 8.05678ZM22.4212 8.64636L25.5252 9.69828V14.5709L23.2408 13.3668L22.4212 8.64636ZM23.0633 18.9965C23.5723 19.5032 24.0717 19.8173 24.5459 19.9907C24.4841 20.2354 24.4033 20.7403 24.6327 21.243C24.8196 21.6476 25.159 21.9599 25.6466 22.1679C25.7007 22.6689 26.0168 23.4222 26.8941 23.7556C26.5104 24.1428 26.1363 24.5069 25.984 24.6553L22.4271 24.5994C22.3461 24.5589 22.2092 24.4684 22.1476 24.3393C22.1399 24.322 22.1283 24.3123 22.1226 24.293L22.7027 24.3874C22.7164 24.3893 22.7278 24.3893 22.7394 24.3893C22.8513 24.3893 22.9496 24.3123 22.9689 24.1967C22.9881 24.0676 22.9014 23.95 22.7761 23.9308L22.0627 23.819L22.8551 21.085L22.1052 19.5071L20.9022 20.7788L20.8289 23.6225L20.0212 23.4954C19.8958 23.4703 19.7763 23.5629 19.7551 23.688C19.7358 23.8134 19.8206 23.9308 19.9478 23.954L20.2872 24.0059C20.1657 24.0754 20.0867 24.1292 20.077 24.1369L20.0075 24.1851L19.9883 24.27C19.7917 25.0676 20.237 25.8248 20.7172 26.1639L20.6997 26.264C20.6805 26.3875 20.7074 26.5068 20.7807 26.607C20.8501 26.7092 20.958 26.7708 21.0775 26.792C21.1027 26.7958 21.1295 26.7977 21.1529 26.7977C21.3609 26.7977 21.5423 26.6532 21.5943 26.4433C21.7735 26.4644 21.9375 26.4683 22.0492 26.4683H22.1437L26.8112 27.3102L26.8902 27.2583C27.2622 26.9981 28.6792 25.9655 29.1439 25.6243C29.2711 25.7343 29.4137 25.8345 29.5873 25.9172C29.4369 26.422 29.4272 27.1985 30.023 27.8113H18.1279V20.9503C18.1279 20.2856 17.9333 19.617 17.7038 19.0004H23.0633V18.9965ZM28.8315 25.2738C28.3592 25.6206 27.1447 26.5068 26.7051 26.8151L22.4637 26.0541C22.4734 26.0155 22.483 25.9789 22.4927 25.9404C22.5486 25.7207 22.6045 25.4201 22.6083 25.0676L26.173 25.1254L26.2404 25.056C26.2945 25.0021 27.4242 23.9115 28.0006 23.2834C28.1375 23.4549 28.309 23.6187 28.5327 23.7632C28.4556 24.1794 28.4884 24.7728 28.8315 25.2738ZM21.7312 24.5396C21.8314 24.7497 22.0125 24.8904 22.138 24.9693C22.134 25.1658 22.1147 25.4722 22.0627 25.7419C22.0512 25.8016 22.0358 25.8575 22.0184 25.9134C22.0088 25.9482 21.9991 25.977 21.9914 26.0001C21.8044 26.0001 21.4361 25.977 21.1354 25.8672C20.802 25.7438 20.3046 25.1331 20.4201 24.4607C20.5648 24.372 20.8983 24.1851 21.2107 24.1851C21.4516 24.1832 21.6155 24.2969 21.7312 24.5396ZM21.2897 23.6939L21.3609 20.9637L21.974 20.3144L22.3597 21.1198L21.6 23.7401L21.2897 23.6939ZM28.793 37.8474C28.5616 37.8474 28.3477 37.8512 28.1548 37.859L28.66 36.2887C28.7391 36.0709 28.3399 35.7916 28.176 35.5469C28.4247 35.703 29.0687 36.044 29.3791 36.1809C29.3463 36.2309 28.793 37.8474 28.793 37.8474ZM30.3777 36.0633L30.0481 37.7819C29.8379 37.8108 29.6143 37.8261 29.3849 37.8358L29.7319 36.1828C29.8359 35.6913 28.5155 35.5392 27.8638 34.5739C27.5456 34.9323 26.9461 35.0383 26.3447 35.0383C25.7952 35.0383 25.2458 34.9496 24.9121 34.8841C24.8273 34.8707 24.7463 34.861 24.6673 34.861C24.4745 34.861 24.299 34.9208 24.1776 35.125L24.0812 35.2868L22.2826 34.863L21.8353 35.6028C21.7716 35.7223 21.7677 35.8245 21.87 35.936L21.9914 36.0691C21.9085 36.3311 21.5345 36.7261 21.5345 36.7261L21.2666 36.3927C21.0544 36.1558 21.0892 35.7242 21.3109 35.3234L22.0242 34.1192L23.5473 34.3389L23.3101 33.7994C22.992 33.0865 23.476 32.1791 23.528 31.6569C23.5106 31.8149 23.3659 31.8496 23.1963 31.8496C23.0421 31.8496 22.8705 31.8206 22.7567 31.8206C22.7125 31.8206 22.6738 31.8245 22.6527 31.8399L22.2401 32.0904L21.9143 31.8033C21.8757 31.7474 21.8622 31.6183 21.9586 31.522L22.7125 30.6781L21.8219 29.6397L23.0692 30.2658L23.4488 29.8054C23.5531 29.9075 23.5086 30.1753 23.5086 30.1753C23.8981 30.1849 24.9892 30.788 25.0471 32.1945C25.0509 32.2367 25.0509 32.285 25.0509 32.3311C25.0509 32.3311 25.0607 32.3486 25.0799 32.3774C25.1571 32.4835 25.369 32.7551 25.6389 32.7801L27.3626 32.9497H27.3701C27.5592 32.9497 27.9351 32.7282 28.417 32.7282C28.6792 32.7282 28.9722 32.7956 29.2846 32.9921C29.2846 32.9921 29.4407 32.8688 29.6952 32.8553C29.7144 32.8533 29.7358 32.8533 29.7551 32.8533C30.5281 32.8533 30.8481 33.5509 31.2626 34.1308C31.575 34.572 31.9914 35.2271 31.9914 35.2271C31.8371 35.4101 31.6944 35.5103 31.4554 35.5103C31.39 35.5103 31.3147 35.5045 31.2337 35.4891C30.4047 35.3369 30.2853 33.6337 29.8129 33.4988C29.7878 33.4911 29.7609 33.4892 29.7378 33.4892C29.5854 33.4892 29.518 33.6241 29.518 33.6241C29.7337 34.2039 29.6085 34.4391 29.8399 34.8861C30.0133 35.2175 30.3217 35.4911 30.4491 35.6201C30.4491 35.624 30.4143 35.8745 30.3777 36.0633ZM21.122 34.4371L21.2009 34.6356C21.1489 34.809 20.5513 35.0556 20.5513 35.0556L20.4221 34.7742C20.2853 34.4737 20.3141 33.967 20.7306 33.6568L21.6984 33.0672L22.724 33.2849C22.7047 33.6105 22.8994 33.8534 22.8994 33.8534L21.8237 33.6472L21.1798 34.0923C21.0718 34.1674 21.0641 34.3081 21.122 34.4371ZM30.5397 37.6876L30.8347 36.1499C30.85 36.0594 30.8693 35.9535 30.8828 35.8648C30.9657 35.8996 31.0544 35.9284 31.1508 35.9458C31.2606 35.967 31.3628 35.9765 31.4554 35.9765C31.9066 35.9765 32.1688 35.7395 32.3442 35.5372L32.5718 35.2733L32.3866 34.9844C32.3693 34.9554 31.9606 34.3081 31.6444 33.8649C31.5826 33.7782 31.5228 33.6915 31.4631 33.5971C31.1045 33.0614 30.6554 32.3891 29.7551 32.3891L29.6741 32.391C29.5256 32.4006 29.3984 32.4295 29.2963 32.468C29.0128 32.3351 28.7217 32.2677 28.4189 32.2677C28.0469 32.2677 27.7326 32.3699 27.5244 32.4411C27.4647 32.4584 27.4107 32.4777 27.3683 32.4854L25.6852 32.3196C25.6641 32.3159 25.5945 32.2755 25.5117 32.1752V32.1675L25.8761 32.021C25.7739 30.8092 24.6094 30.0635 23.9598 29.8111C23.9309 29.6897 23.8731 29.5683 23.7709 29.4701L23.4085 29.1271L23.0903 29.5087L22.9342 29.7033L20.5783 28.736L22.111 30.6589L21.5055 31.5741C21.2838 31.8091 21.5288 32.0442 21.5288 32.0442L22.1533 32.4738L22.8012 32.233C22.8242 32.233 22.8435 32.2389 22.8648 32.2407C22.834 32.3389 22.7934 32.7243 22.7664 32.8322L21.6425 32.6106L20.4607 33.2773C19.8533 33.7224 19.7704 34.4603 19.9961 34.9651L20.1271 35.252L20.3141 35.6568L20.7267 35.4852C20.7325 35.4833 20.7383 35.4814 20.742 35.4776C20.5937 35.9515 20.6535 36.4023 20.9195 36.6991L21.1701 37.0151L21.5037 37.437L21.87 37.0439C21.9779 36.936 22.3269 36.545 22.4348 36.2097L22.5139 35.9534L22.3346 35.7569L22.3057 35.7223L22.5062 35.3908L23.9732 35.7357L24.3029 35.8109L24.4784 35.5218L24.5748 35.3638C24.5921 35.3311 24.5979 35.3253 24.6654 35.3253C24.7175 35.3253 24.7695 35.3311 24.8254 35.3427C25.3787 35.4467 25.8895 35.4988 26.3427 35.4988C26.7822 35.4988 27.0443 35.4814 27.3586 35.3774C27.3586 35.3774 28.1471 36.2713 28.1741 36.306L27.6922 37.7934L27.671 37.884C26.7571 37.9571 26.3119 38.1576 25.7739 38.6951C24.9931 37.9205 24.4397 37.8397 22.3405 37.8397C19.8283 37.8397 18.126 36.3677 18.126 34.0171V28.2698H33.418L33.422 34.0171C33.4237 35.9245 32.3037 37.2539 30.5397 37.6876ZM33.846 18.9965C33.6128 19.6131 33.418 20.2817 33.418 20.9464L33.4201 25.2353C32.5235 25.085 32.4174 24.1196 32.4135 24.0773L32.3962 23.8808L32.2035 23.8634C31.814 23.8268 31.5557 23.661 31.3378 23.4492C30.8983 23.0099 30.8963 22.297 30.8983 22.2912C30.8926 22.3278 30.4143 22.9963 30.9696 23.7266C31.2028 24.0349 31.5402 24.2237 31.9779 24.2989C32.0801 24.8345 32.4791 25.5897 33.4201 25.7053V27.8054H30.7749C29.5545 27.1273 30.0711 25.9326 30.0962 25.8826L30.2004 25.6552L29.9671 25.5666C28.6464 25.0772 29.009 23.7593 29.0282 23.7035L29.0821 23.5107L28.9028 23.426C27.8116 22.9212 27.9602 21.5591 27.9737 21.5032C27.6382 21.7748 27.5167 22.3297 27.748 22.8731C27.6228 23.0157 27.4551 23.189 27.2719 23.3778C26.1422 23.0909 26.1076 22.0523 26.1076 22.0042L26.1055 21.8442L25.9571 21.7864C25.5156 21.6226 25.2129 21.378 25.0644 21.0484C24.8968 20.6844 24.9564 20.3029 25.0028 20.1198C25.1319 20.1487 25.2611 20.17 25.3845 20.1796C25.5117 20.193 25.6428 20.2008 25.7739 20.2008H25.7816H25.7913C25.9224 20.2008 26.0516 20.193 26.1788 20.1796C26.8824 20.1102 27.671 19.8077 28.4923 18.9946H33.846V18.9965ZM29.7242 14.6614L30.769 15.2684H30.7845L31.0467 15.4206C30.4568 15.5844 30.0056 15.8791 29.6278 16.2664C29.6143 16.278 29.6008 16.2934 29.5873 16.3069C29.5006 16.3993 29.4137 16.4996 29.3329 16.6017C29.3174 16.621 29.302 16.6422 29.2846 16.6634C29.2036 16.7673 29.1286 16.8734 29.0551 16.9851C29.0437 17.0044 29.0301 17.0237 29.0166 17.0409C28.9298 17.17 28.847 17.3088 28.7641 17.4513C28.0199 18.7326 26.8323 19.4975 25.7759 19.4994C24.7214 19.4975 23.5338 18.7326 22.7895 17.4513C22.7085 17.3125 22.6277 17.1778 22.5408 17.0467C22.5234 17.0217 22.5081 16.9967 22.4927 16.9754C22.4194 16.8695 22.3461 16.7654 22.271 16.6673C22.2517 16.6403 22.2342 16.619 22.215 16.5959C22.134 16.4976 22.0512 16.3993 21.9683 16.3088C21.951 16.2954 21.9394 16.278 21.922 16.2626C21.5423 15.8753 21.093 15.5824 20.5011 15.4206L20.7672 15.2684H20.7788L21.8237 14.6614L22.8974 14.0469L25.7662 15.6075L25.772 15.6017L25.7796 15.6075L28.6483 14.0469L29.7242 14.6614ZM28.309 13.3686L26.0227 14.5728V9.69828L29.1246 8.64636L28.309 13.3686ZM25.7739 9.1627L22.3732 7.81983C22.6624 7.13586 23.9964 6.55389 25.7739 6.55199C27.5534 6.55389 28.8874 7.13586 29.1747 7.81983L25.7739 9.1627Z" fill="#2C3F4D"/>
<path d="M67.8876 29.5538V21.839H72.4156V19.0317H60.0627V21.839H64.5906V29.5538H67.8876ZM76.9222 25.1548V19.0317H73.7351V29.5538H76.5486L82.0435 23.4306V29.5538H85.2307V19.0317H82.4172L76.9222 25.1548ZM95.9534 25.6412V29.5538H99.1408V19.0317H95.9534V22.8779H90.8315V19.0317H87.6444V29.5538H90.8315V25.6412H95.9534ZM108.016 29.5538C108.74 29.5538 109.4 29.4876 110.016 29.3107C111.665 28.8465 112.742 27.498 112.742 25.6632C112.742 23.917 111.819 22.7012 110.347 22.1485C109.641 21.8833 108.807 21.8611 108.016 21.8611H104.74V19.0317H101.554V29.5538H108.016ZM107.466 24.337C107.906 24.337 108.324 24.337 108.697 24.4696C109.225 24.6464 109.533 25.0885 109.533 25.6191C109.533 26.1717 109.225 26.6359 108.719 26.8569C108.368 27.0117 108.016 27.0117 107.466 27.0117H104.74V24.337H107.466ZM118.456 25.5749L122.259 29.5538H126.5L121.203 24.0716L126.303 19.0317H122.303L118.456 22.9885H117.577V19.0317H114.391V29.5538H117.577V25.5749H118.456ZM133.058 18.7444C128.772 18.7444 126.201 21.1758 126.201 24.3148C126.201 27.4539 128.772 29.8855 133.058 29.8855C137.323 29.8855 139.895 27.4539 139.895 24.3148C139.895 21.1758 137.323 18.7444 133.058 18.7444ZM133.058 27.3212C130.926 27.3212 129.565 26.0391 129.565 24.3148C129.565 22.5907 130.926 21.3306 133.058 21.3306C135.168 21.3306 136.554 22.5907 136.554 24.3148C136.554 26.0391 135.168 27.3212 133.058 27.3212ZM150.509 18.4348H147.322V19.4958C143.322 19.5842 140.925 21.2863 140.925 24.2927C140.925 27.299 143.322 28.8686 147.322 28.957V30.0181H150.509V28.957C154.531 28.8686 156.927 27.299 156.927 24.2927C156.927 21.2863 154.531 19.5842 150.509 19.4958V18.4348ZM147.322 26.7023C145.124 26.6138 144.156 25.7075 144.156 24.2927C144.156 22.8779 145.124 21.8611 147.322 21.7728V26.7023ZM150.509 21.7728C152.73 21.8611 153.675 22.8779 153.675 24.2927C153.675 25.7075 152.73 26.6138 150.509 26.7023V21.7728ZM167.53 18.4348H164.343V19.4958C160.343 19.5842 157.948 21.2863 157.948 24.2927C157.948 27.299 160.343 28.8686 164.343 28.957V30.0181H167.53V28.957C171.554 28.8686 173.949 27.299 173.949 24.2927C173.949 21.2863 171.554 19.5842 167.53 19.4958V18.4348ZM164.343 26.7023C162.145 26.6138 161.179 25.7075 161.179 24.2927C161.179 22.8779 162.145 21.8611 164.343 21.7728V26.7023ZM167.53 21.7728C169.75 21.8611 170.696 22.8779 170.696 24.2927C170.696 25.7075 169.75 26.6138 167.53 26.7023V21.7728Z" fill="#2C3F4D"/>
</svg>
